<svg version="1.2" baseProfile="tiny-ps" xmlns="http://www.w3.org/2000/svg" viewBox="0 0 2116 1269" width="2116" height="1269">
	<title>\221\353\356\351_1</title>
	<style>
		tspan { white-space:pre }
		.shp0 { fill: #ebf3fa } 
		.shp1 { fill: #dceaff } 
		.shp2 { fill: #dfebfa } 
		.shp3 { fill: #eef6ff } 
		.shp4 { fill: #c4dafc } 
		.shp5 { fill: #afcdfb } 
		.shp6 { fill: #dfedfb } 
		.shp7 { fill: #b0d4ff } 
		.shp8 { fill: #ffa412 } 
		.shp9 { fill: #78acea } 
		.shp10 { fill: #bae8e3 } 
		.shp11 { fill: #a1d6ce } 
		.shp12 { fill: #f99746 } 
		.shp13 { fill: #9fc3f7 } 
		.shp14 { fill: #b4d4fc } 
		.shp15 { fill: #c5dfff } 
		.shp16 { fill: #77a4e5 } 
		.shp17 { fill: #9fc1f4 } 
		.shp18 { fill: #d2e3fc } 
		.shp19 { fill: #b0cded } 
		.shp20 { fill: #ffffff } 
		.shp21 { fill: #2c3a64 } 
		.shp22 { fill: #ff9e55 } 
		.shp23 { fill: #ed823a } 
		.shp24 { fill: #82b378 } 
		.shp25 { fill: #a8d29f } 
		.shp26 { fill: #2b478b } 
		.shp27 { fill: #ffb27d } 
		.shp28 { fill: #ed975d } 
		.shp29 { fill: #2a4e96 } 
		.shp30 { fill: #d8702a } 
		.shp31 { fill: #c15e1b } 
		.shp32 { fill: #233862 } 
		.shp33 { fill: #f99f46 } 
		.shp34 { fill: #ed7d2b } 
		.shp35 { fill: #f38e38 } 
		.shp36 { fill: #c0d8fb } 
		.shp37 { fill: #dfebfd } 
		.shp38 { fill: #b7d3f3 } 
		.shp39 { fill: #6196d6 } 
		.shp40 { fill: #5d95d8 } 
		.shp41 { fill: #eac3a2 } 
		.shp42 { fill: #ed985f } 
		.shp43 { fill: #f9ddbf } 
		.shp44 { fill: #ffb93e } 
		.shp45 { fill: #ffeddc } 
		.shp46 { fill: #a9453d } 
		.shp47 { fill: #ce6863 } 
		.shp48 { fill: #e0b08c } 
		.shp49 { fill: #ffe4cc } 
		.shp50 { fill: #1f437c } 
		.shp51 { fill: #d8a884 } 
	</style>
	<g id="\221\353\356\351_1">
		<g id="&lt;Group&gt;">
			<path id="&lt;Path&gt;" class="shp0" d="M2115.31 0.12L2115.31 736.92L0.69 736.92L0.69 0.12L2115.31 0.12Z" />
			<path id="&lt;Path&gt;" class="shp1" d="M2115.31 725.95L1257.69 725.95L1257.69 0.12L2115.31 0.12L2115.31 725.95Z" />
			<g id="&lt;Group&gt;">
				<path id="&lt;Compound Path&gt;" class="shp2" d="M1257.87 282.19L1228.62 282.19L1228.62 216.94C1228.16 216.68 1227.71 216.42 1227.26 216.16L1218.54 216.16L1218.54 216.13L1167.8 216.13L1167.8 216.16L1167.76 216.16L1167.76 225.94L1167.8 225.94L1167.8 232.67L1167.76 232.67L1167.76 242.44L1167.8 242.44L1167.8 249.19L1167.76 249.19L1167.76 258.98L1167.8 258.98L1167.8 259.01L1162.43 258.98L1162.43 207.81L1105.49 207.81L1105.49 214.29L1105.47 214.29L1105.47 224.07L1105.49 224.07L1105.49 232.67L1105.47 232.67L1105.47 242.44L1105.49 242.44L1105.49 249.19L1105.47 249.19L1105.47 258.98L1105.49 258.98L1105.49 265.22L1105.47 265.22L1105.47 275L1105.49 275L1105.49 281.25L1105.47 281.25L1105.47 291.03L1105.49 291.03L1105.49 296.91L1105.47 296.91L1105.47 303.12L1105.49 303.12L1105.49 303.8L1041.32 303.8L1041.32 359.78L1017.34 359.78L1017.34 373.88L991.5 373.88L991.5 349.59L944.99 349.59L944.99 283.62L937.72 283.62L937.72 277.05L936.68 277.05L936.68 283.62L930.65 283.62L930.65 283.61L900.49 283.61L900.49 277.05L899.45 277.05L899.45 283.61L891.59 283.61L891.59 316.79L852.53 316.6L852.53 337.08L819.41 337.08L819.41 210.5L721.29 210.5L721.29 346.11L691.33 346.11L691.33 272.78L593.21 272.78L593.21 747.19L1263.67 744.63L1257.87 282.19Z" />
				<path id="&lt;Path&gt;" class="shp2" d="M593.31 359.16L593.31 403.62L593.31 469.77L593.31 743.95L544.03 743.95L544.03 469.77L544.03 403.62L544.03 359.16L593.31 359.16Z" />
				<path id="&lt;Path&gt;" class="shp2" d="M1055.08 304.28L1053.27 304.28L1053.27 277.69L1055.08 277.69L1055.08 304.28Z" />
				<path id="&lt;Path&gt;" class="shp2" d="M1086.54 306.35L1083.73 306.35L1083.73 254.86L1086.54 254.86L1086.54 306.35Z" />
				<path id="&lt;Path&gt;" class="shp2" d="M728.98 210.5L727.81 210.5L727.81 201.02L728.98 201.02L728.98 210.5Z" />
				<path id="&lt;Path&gt;" class="shp2" d="M753.82 210.5L752.64 210.5L752.64 201.02L753.82 201.02L753.82 210.5Z" />
				<path id="&lt;Path&gt;" class="shp2" d="M810.75 210.5L809.58 210.5L809.58 201.02L810.75 201.02L810.75 210.5Z" />
				<path id="&lt;Path&gt;" class="shp2" d="M1112.05 207.81L1111.14 207.81L1111.14 200.49L1112.05 200.49L1112.05 207.81Z" />
				<path id="&lt;Path&gt;" class="shp2" d="M1154.79 207.81L1153.89 207.81L1153.89 200.49L1154.79 200.49L1154.79 207.81Z" />
				<path id="&lt;Path&gt;" class="shp2" d="M788.49 210.5L787.32 210.5L787.32 201.02L788.49 201.02L788.49 210.5Z" />
				<path id="&lt;Path&gt;" class="shp3" d="M619.04 314.15L607.48 314.15L607.48 294.41L619.04 294.41L619.04 314.15Z" />
				<path id="&lt;Path&gt;" class="shp3" d="M663.46 351.43L651.9 351.43L651.9 331.68L663.46 331.68L663.46 351.43Z" />
				<path id="&lt;Path&gt;" class="shp3" d="M933.56 318.96L922 318.96L922 299.21L933.56 299.21L933.56 318.96Z" />
				<path id="&lt;Path&gt;" class="shp3" d="M748.85 246.09L737.29 246.09L737.29 226.35L748.85 226.35L748.85 246.09Z" />
				<path id="&lt;Path&gt;" class="shp3" d="M771.79 246.09L760.23 246.09L760.23 226.35L771.79 226.35L771.79 246.09Z" />
				<path id="&lt;Path&gt;" class="shp3" d="M1129.53 236.22L1117.97 236.22L1117.97 216.48L1129.53 216.48L1129.53 236.22Z" />
				<path id="&lt;Path&gt;" class="shp3" d="M1129.53 358.01L1117.97 358.01L1117.97 338.26L1129.53 338.26L1129.53 358.01Z" />
				<path id="&lt;Path&gt;" class="shp3" d="M1183.86 310.73L1172.3 310.73L1172.3 290.98L1183.86 290.98L1183.86 310.73Z" />
				<path id="&lt;Path&gt;" class="shp3" d="M1111.14 440.66L1099.59 440.66L1099.59 420.92L1111.14 420.92L1111.14 440.66Z" />
				<path id="&lt;Path&gt;" class="shp3" d="M1160.57 489.7L1149.01 489.7L1149.01 469.95L1160.57 469.95L1160.57 489.7Z" />
				<path id="&lt;Path&gt;" class="shp3" d="M1211.86 409.69L1200.3 409.69L1200.3 389.94L1211.86 389.94L1211.86 409.69Z" />
				<path id="&lt;Path&gt;" class="shp3" d="M624.82 409.69L613.26 409.69L613.26 389.94L624.82 389.94L624.82 409.69Z" />
				<path id="&lt;Path&gt;" class="shp3" d="M695.74 430.79L684.18 430.79L684.18 411.05L695.74 411.05L695.74 430.79Z" />
			</g>
			<g id="&lt;Group&gt;">
				<path id="&lt;Compound Path&gt;" class="shp2" d="M545.17 282.18L515.92 282.18L515.92 216.94C515.46 216.67 515.01 216.42 514.57 216.16L505.85 216.16L505.85 216.13L455.11 216.13L455.11 216.16L455.06 216.16L455.06 225.94L455.11 225.94L455.11 232.67L455.06 232.67L455.06 242.45L455.11 242.45L455.11 249.2L455.06 249.2L455.06 258.98L455.11 258.98L455.11 259.01L449.73 258.98L449.73 207.81L392.8 207.81L392.8 214.29L392.77 214.29L392.77 224.07L392.8 224.07L392.8 232.67L392.77 232.67L392.77 242.45L392.8 242.45L392.8 249.2L392.77 249.2L392.77 258.98L392.8 258.98L392.8 265.22L392.77 265.22L392.77 275.01L392.8 275.01L392.8 281.25L392.77 281.25L392.77 291.03L392.8 291.03L392.8 296.91L392.77 296.91L392.77 303.12L392.8 303.12L392.8 303.8L328.62 303.8L328.62 359.78L304.65 359.78L304.65 373.88L278.8 373.88L278.8 349.59L232.3 349.59L232.3 283.62L225.02 283.62L225.02 277.05L223.98 277.05L223.98 283.62L217.95 283.62L217.95 283.61L187.79 283.61L187.79 277.05L186.75 277.05L186.75 283.61L178.89 283.61L178.89 316.79L139.83 316.61L139.83 337.08L106.71 337.08L106.71 210.49L0.69 210.49L0.69 346.1L0.69 736.92L550.88 736.92L545.17 282.18Z" />
				<path id="&lt;Path&gt;" class="shp2" d="M342.38 304.28L340.57 304.28L340.57 277.69L342.38 277.69L342.38 304.28Z" />
				<path id="&lt;Path&gt;" class="shp2" d="M373.85 306.35L371.03 306.35L371.03 254.86L373.85 254.86L373.85 306.35Z" />
				<path id="&lt;Path&gt;" class="shp2" d="M16.28 210.5L15.11 210.5L15.11 201.02L16.28 201.02L16.28 210.5Z" />
				<path id="&lt;Path&gt;" class="shp2" d="M41.12 210.5L39.95 210.5L39.95 201.02L41.12 201.02L41.12 210.5Z" />
				<path id="&lt;Path&gt;" class="shp2" d="M98.06 210.5L96.89 210.5L96.89 201.02L98.06 201.02L98.06 210.5Z" />
				<path id="&lt;Path&gt;" class="shp2" d="M399.35 207.81L398.45 207.81L398.45 200.49L399.35 200.49L399.35 207.81Z" />
				<path id="&lt;Path&gt;" class="shp2" d="M442.1 207.81L441.19 207.81L441.19 200.49L442.1 200.49L442.1 207.81Z" />
				<path id="&lt;Path&gt;" class="shp2" d="M75.8 210.5L74.63 210.5L74.63 201.02L75.8 201.02L75.8 210.5Z" />
				<path id="&lt;Path&gt;" class="shp3" d="M86.18 242.19L74.63 242.19L74.63 222.45L86.18 222.45L86.18 242.19Z" />
				<path id="&lt;Path&gt;" class="shp3" d="M123.07 402.6L111.51 402.6L111.51 382.86L123.07 382.86L123.07 402.6Z" />
				<path id="&lt;Path&gt;" class="shp3" d="M187.46 460.4L175.9 460.4L175.9 440.66L187.46 440.66L187.46 460.4Z" />
				<path id="&lt;Path&gt;" class="shp3" d="M46.9 364.8L35.34 364.8L35.34 345.05L46.9 345.05L46.9 364.8Z" />
				<path id="&lt;Path&gt;" class="shp3" d="M425.17 311.84L413.61 311.84L413.61 292.09L425.17 292.09L425.17 311.84Z" />
				<path id="&lt;Path&gt;" class="shp3" d="M369.37 402.6L357.81 402.6L357.81 382.86L369.37 382.86L369.37 402.6Z" />
				<path id="&lt;Path&gt;" class="shp3" d="M463.71 440.66L452.15 440.66L452.15 420.92L463.71 420.92L463.71 440.66Z" />
			</g>
			<path id="&lt;Path&gt;" class="shp4" d="M506.61 725.95L481.83 725.95L481.83 0.12L506.61 0.12L506.61 725.95Z" />
			<path id="&lt;Path&gt;" class="shp4" d="M1282.47 725.95L1257.69 725.95L1257.69 0.12L1282.47 0.12L1282.47 725.95Z" />
			<g id="&lt;Group&gt;">
				<path id="&lt;Path&gt;" class="shp5" d="M1652.25 393.45L1384.05 393.45L1384.05 161.93L1652.25 161.93L1652.25 393.45Z" />
				<path id="&lt;Path&gt;" class="shp6" d="M1647.04 388.84L1389.15 388.84L1389.15 165.79L1647.04 165.79L1647.04 388.84Z" />
				<path id="&lt;Path&gt;" class="shp3" d="M1479.29 262.83L1422.78 262.83L1422.78 192.27L1432.36 183.63L1479.29 183.63L1479.29 262.83Z" />
				<path id="&lt;Path&gt;" class="shp7" d="M1422.78 192.27L1432.05 192.27L1432.36 183.63L1422.78 192.27Z" />
				<path id="&lt;Path&gt;" class="shp7" d="M1460.08 191.36L1441.99 191.36L1441.99 190.5L1460.08 190.5L1460.08 191.36Z" />
				<path id="&lt;Path&gt;" class="shp7" d="M1464.34 193.95L1437.73 193.95L1437.73 193.08L1464.34 193.08L1464.34 193.95Z" />
				<path id="&lt;Path&gt;" class="shp7" d="M1473.65 210.79L1429.47 210.79L1429.47 209.69L1473.65 209.69L1473.65 210.79Z" />
				<path id="&lt;Path&gt;" class="shp7" d="M1473.65 214.16L1429.47 214.16L1429.47 213.05L1473.65 213.05L1473.65 214.16Z" />
				<path id="&lt;Path&gt;" class="shp7" d="M1473.65 217.52L1429.47 217.52L1429.47 216.41L1473.65 216.41L1473.65 217.52Z" />
				<path id="&lt;Path&gt;" class="shp7" d="M1473.65 220.89L1429.47 220.89L1429.47 219.78L1473.65 219.78L1473.65 220.89Z" />
				<path id="&lt;Path&gt;" class="shp7" d="M1473.65 256.89L1429.47 256.89L1429.47 255.78L1473.65 255.78L1473.65 256.89Z" />
				<path id="&lt;Path&gt;" class="shp3" d="M1544.54 360.73L1488.03 360.73L1488.03 290.17L1497.61 281.53L1544.54 281.53L1544.54 360.73Z" />
				<path id="&lt;Path&gt;" class="shp7" d="M1488.03 290.17L1497.3 290.17L1497.61 281.53L1488.03 290.17Z" />
				<path id="&lt;Path&gt;" class="shp7" d="M1525.33 289.26L1507.24 289.26L1507.24 288.4L1525.33 288.4L1525.33 289.26Z" />
				<path id="&lt;Path&gt;" class="shp7" d="M1529.59 291.85L1502.98 291.85L1502.98 290.98L1529.59 290.98L1529.59 291.85Z" />
				<path id="&lt;Path&gt;" class="shp7" d="M1538.9 308.69L1494.72 308.69L1494.72 307.59L1538.9 307.59L1538.9 308.69Z" />
				<path id="&lt;Path&gt;" class="shp7" d="M1538.9 312.06L1494.72 312.06L1494.72 310.95L1538.9 310.95L1538.9 312.06Z" />
				<path id="&lt;Path&gt;" class="shp7" d="M1538.9 315.42L1494.72 315.42L1494.72 314.31L1538.9 314.31L1538.9 315.42Z" />
				<path id="&lt;Path&gt;" class="shp7" d="M1538.9 318.79L1494.72 318.79L1494.72 317.68L1538.9 317.68L1538.9 318.79Z" />
				<path id="&lt;Path&gt;" class="shp7" d="M1538.9 329.14L1494.72 329.14L1494.72 328.03L1538.9 328.03L1538.9 329.14Z" />
				<path id="&lt;Path&gt;" class="shp7" d="M1538.9 332.5L1494.72 332.5L1494.72 331.4L1538.9 331.4L1538.9 332.5Z" />
				<path id="&lt;Path&gt;" class="shp7" d="M1538.9 336.4L1494.72 336.4L1494.72 335.3L1538.9 335.3L1538.9 336.4Z" />
				<path id="&lt;Path&gt;" class="shp7" d="M1545.22 183.63L1576.43 183.63L1576.43 211.14L1545.22 211.14L1545.22 183.63Z" />
				<path id="&lt;Path&gt;" class="shp8" d="M1559.46 186.91C1559.46 186.15 1560.07 185.54 1560.82 185.54C1561.58 185.54 1562.19 186.15 1562.19 186.91C1562.19 187.66 1561.58 188.27 1560.82 188.27C1560.07 188.27 1559.46 187.66 1559.46 186.91Z" />
				<path id="&lt;Path&gt;" class="shp3" d="M1544.3 221.96L1575.43 219.78L1577.35 247.23L1546.22 249.4L1544.3 221.96Z" />
				<path id="&lt;Path&gt;" class="shp7" d="M1558.85 225.94C1558.8 225.18 1559.36 224.53 1560.12 224.48C1560.87 224.42 1561.52 224.99 1561.58 225.75C1561.63 226.5 1561.06 227.15 1560.31 227.2C1559.56 227.26 1558.9 226.69 1558.85 225.94Z" />
				<path id="&lt;Path&gt;" class="shp3" d="M1440.61 323.31L1471.74 321.13L1473.65 348.57L1442.53 350.75L1440.61 323.31Z" />
				<path id="&lt;Path&gt;" class="shp7" d="M1455.16 327.28C1455.11 326.53 1455.67 325.88 1456.43 325.83C1457.18 325.77 1457.83 326.34 1457.88 327.09C1457.94 327.85 1457.37 328.5 1456.62 328.55C1455.86 328.6 1455.21 328.04 1455.16 327.28Z" />
				<path id="&lt;Path&gt;" class="shp3" d="M1401.37 341.2L1432.57 340.88L1432.86 368.38L1401.65 368.7L1401.37 341.2Z" />
				<path id="&lt;Path&gt;" class="shp7" d="M1415.66 346.03C1415.65 345.28 1416.26 344.66 1417.01 344.65C1417.76 344.64 1418.38 345.25 1418.39 346C1418.4 346.76 1417.79 347.37 1417.04 347.38C1416.28 347.39 1415.67 346.78 1415.66 346.03Z" />
				<path id="&lt;Path&gt;" class="shp3" d="M1591.96 236.4L1622.67 241.89L1617.83 268.97L1587.12 263.48L1591.96 236.4Z" />
				<path id="&lt;Path&gt;" class="shp9" d="M1605.49 242.61C1605.6 241.96 1606.22 241.53 1606.87 241.65C1607.51 241.76 1607.94 242.38 1607.83 243.02C1607.71 243.67 1607.09 244.1 1606.45 243.98C1605.8 243.87 1605.37 243.25 1605.49 242.61Z" />
				<path id="&lt;Path&gt;" class="shp3" d="M1495.8 222.6L1526.82 219.24L1529.78 246.59L1498.76 249.95L1495.8 222.6Z" />
				<path id="&lt;Path&gt;" class="shp9" d="M1510.53 224.75C1510.46 224.1 1510.93 223.51 1511.58 223.44C1512.23 223.37 1512.82 223.84 1512.89 224.5C1512.96 225.15 1512.49 225.73 1511.84 225.8C1511.18 225.88 1510.6 225.4 1510.53 224.75Z" />
				<path id="&lt;Path&gt;" class="shp10" d="M1415.31 290.77L1445.82 284.27L1451.56 311.17L1421.04 317.68L1415.31 290.77Z" />
				<path id="&lt;Path&gt;" class="shp8" d="M1430.69 292.15C1430.14 291.8 1429.99 291.06 1430.34 290.51C1430.7 289.96 1431.44 289.8 1431.99 290.16C1432.54 290.52 1432.69 291.25 1432.34 291.8C1431.98 292.35 1431.24 292.51 1430.69 292.15Z" />
				<g id="&lt;Group&gt;">
					<path id="&lt;Path&gt;" class="shp3" d="M1527.64 211.14L1497.94 211.14L1497.94 191.19L1506.16 183.63L1527.64 183.63L1527.64 211.14Z" />
					<path id="&lt;Path&gt;" class="shp3" d="M1497.78 191.19L1505.89 191.19L1506.16 183.63L1497.78 191.19Z" />
				</g>
				<path id="&lt;Path&gt;" class="shp7" d="M1512.9 186.18C1512.9 185.64 1513.33 185.2 1513.87 185.2C1514.41 185.2 1514.85 185.64 1514.85 186.18C1514.85 186.72 1514.41 187.15 1513.87 187.15C1513.33 187.15 1512.9 186.72 1512.9 186.18Z" />
				<g id="&lt;Group&gt;">
					<path id="&lt;Path&gt;" class="shp3" d="M1614.41 374.49L1584.71 374.49L1584.71 354.53L1592.94 346.98L1614.41 346.98L1614.41 374.49Z" />
					<path id="&lt;Path&gt;" class="shp3" d="M1584.56 354.53L1592.67 354.53L1592.94 346.98L1584.56 354.53Z" />
				</g>
				<path id="&lt;Path&gt;" class="shp7" d="M1599.67 349.52C1599.67 348.98 1600.11 348.55 1600.65 348.55C1601.19 348.55 1601.62 348.98 1601.62 349.52C1601.62 350.06 1601.19 350.5 1600.65 350.5C1600.11 350.5 1599.67 350.06 1599.67 349.52Z" />
				<g id="&lt;Group&gt;">
					<path id="&lt;Path&gt;" class="shp3" d="M1627.96 334.89L1598.26 334.89L1598.26 314.93L1606.48 307.38L1627.96 307.38L1627.96 334.89Z" />
					<path id="&lt;Path&gt;" class="shp3" d="M1598.1 314.93L1606.21 314.93L1606.48 307.38L1598.1 314.93Z" />
				</g>
				<path id="&lt;Path&gt;" class="shp7" d="M1613.22 309.92C1613.22 309.38 1613.66 308.95 1614.2 308.95C1614.74 308.95 1615.17 309.38 1615.17 309.92C1615.17 310.46 1614.74 310.9 1614.2 310.9C1613.66 310.9 1613.22 310.46 1613.22 309.92Z" />
				<g id="&lt;Group&gt;">
					<path id="&lt;Path&gt;" class="shp10" d="M1588.77 334.89L1559.07 334.89L1559.07 314.93L1567.29 307.38L1588.77 307.38L1588.77 334.89Z" />
					<path id="&lt;Path&gt;" class="shp11" d="M1558.91 314.93L1567.02 314.93L1567.29 307.38L1558.91 314.93Z" />
				</g>
				<path id="&lt;Path&gt;" class="shp12" d="M1574.03 309.92C1574.03 309.38 1574.46 308.95 1575 308.95C1575.54 308.95 1575.98 309.38 1575.98 309.92C1575.98 310.46 1575.54 310.9 1575 310.9C1574.46 310.9 1574.03 310.46 1574.03 309.92Z" />
				<g id="&lt;Group&gt;">
					<path id="&lt;Path&gt;" class="shp10" d="M1636.34 204.25L1606.64 204.25L1606.64 184.3L1614.86 176.75L1636.34 176.75L1636.34 204.25Z" />
					<path id="&lt;Path&gt;" class="shp11" d="M1606.48 184.3L1614.6 184.3L1614.86 176.75L1606.48 184.3Z" />
				</g>
				<path id="&lt;Path&gt;" class="shp12" d="M1621.6 179.29C1621.6 178.75 1622.04 178.31 1622.58 178.31C1623.12 178.31 1623.55 178.75 1623.55 179.29C1623.55 179.83 1623.12 180.27 1622.58 180.27C1622.04 180.27 1621.6 179.83 1621.6 179.29Z" />
			</g>
			<g id="&lt;Group&gt;">
				<g id="&lt;Group&gt;">
					<path id="&lt;Path&gt;" class="shp13" d="M1536.32 483.58C1536.43 483.7 1536.53 483.81 1536.64 483.92L1536.66 483.95C1536.76 484.06 1536.86 484.17 1536.97 484.27C1539.93 486.84 1549.74 482.24 1559.23 473.75C1568.72 465.26 1574.39 456.02 1572.17 452.79C1572.07 452.68 1571.98 452.56 1571.88 452.45L1571.86 452.43C1571.76 452.31 1571.66 452.19 1571.55 452.08C1562.85 442.35 1547.91 441.52 1538.19 450.22C1528.46 458.92 1527.62 473.85 1536.32 483.58Z" />
					<path id="&lt;Path&gt;" class="shp14" d="M1536.64 483.92L1536.66 483.94C1536.69 483.99 1536.72 484.03 1536.76 484.06C1536.82 484.14 1536.89 484.2 1536.97 484.27C1539.92 486.84 1549.74 482.24 1559.23 473.75C1568.72 465.26 1574.39 456.02 1572.17 452.79C1572.11 452.71 1572.05 452.63 1571.99 452.56C1571.95 452.52 1571.92 452.49 1571.88 452.45L1571.86 452.43C1569.84 450.52 1564.37 452.22 1557.98 456.36C1555.26 458.12 1552.37 460.32 1549.51 462.88C1547.27 464.89 1545.24 466.94 1543.47 468.94C1537.72 475.47 1534.81 481.51 1536.64 483.92Z" />
					<path id="&lt;Path&gt;" class="shp15" d="M1543.47 468.94C1545.15 470.32 1547.3 471.14 1549.64 471.14C1555.02 471.14 1559.38 466.78 1559.38 461.4C1559.38 459.55 1558.87 457.83 1557.98 456.36C1555.26 458.12 1552.37 460.32 1549.51 462.88C1547.27 464.89 1545.24 466.94 1543.47 468.94Z" />
				</g>
				<g id="&lt;Group&gt;">
					<g id="&lt;Group&gt;">
						<g id="&lt;Group&gt;">
							<path id="&lt;Path&gt;" class="shp13" d="M1517.18 572.03L1519.35 572.03L1519.35 534.73L1497.18 478.17L1536.76 447.5L1535.43 445.78L1494.57 477.45L1517.18 535.13L1517.18 572.03Z" />
						</g>
						<path id="&lt;Path&gt;" class="shp13" d="M1541.23 451.4C1542.23 450.7 1542.46 449.32 1541.76 448.32L1538.46 443.67C1537.75 442.68 1536.37 442.44 1535.38 443.15C1534.38 443.86 1534.15 445.24 1534.85 446.23L1538.15 450.88C1538.86 451.88 1540.24 452.11 1541.23 451.4Z" />
						<path id="&lt;Path&gt;" class="shp13" d="M1499.24 477.52C1499.24 475.93 1497.95 474.65 1496.37 474.65C1494.79 474.65 1493.5 475.93 1493.5 477.52C1493.5 479.1 1494.79 480.38 1496.37 480.38C1497.95 480.38 1499.24 479.1 1499.24 477.52Z" />
					</g>
					<g id="&lt;Group&gt;">
						<path id="&lt;Path&gt;" class="shp13" d="M1507.75 577.16L1529.55 577.16L1529.55 574.96C1529.55 572.75 1527.75 570.96 1525.54 570.96L1511.91 570.96C1509.61 570.96 1507.75 572.82 1507.75 575.12L1507.75 577.16Z" />
						<path id="&lt;Path&gt;" class="shp13" d="M1515.99 572.03L1520.56 572.03L1520.56 537.37L1515.99 537.37L1515.99 572.03Z" />
					</g>
				</g>
			</g>
			<g id="&lt;Group&gt;" style="opacity: 0.702">
				<g id="&lt;Group&gt;">
					<path id="&lt;Path&gt;" class="shp16" d="M1984.74 571.54C1991.27 563.92 1991.47 557.69 1985.34 552.85C1980.86 550.13 1976.8 548.89 1973.15 549.11C1978.32 557.79 1980.07 562.56 1978.4 563.42C1976.72 564.28 1974.19 559.24 1970.79 548.29C1960.6 547.3 1953.87 547.6 1950.59 549.17C1959.3 556.3 1962.74 560.08 1960.9 560.51C1959.07 560.93 1953.45 557.64 1944.03 550.65C1934.55 552.26 1930.06 555.96 1930.56 561.75C1931.32 570.43 1936.23 573.11 1938.38 572.88C1940.54 572.65 1953.14 567.83 1953.42 569.6C1953.69 571.37 1946.1 577.14 1940.79 577.41C1947.48 584.78 1953.04 587.41 1957.49 585.28C1964.16 582.08 1964.72 577.02 1968.88 575.12C1973.04 573.23 1976.58 573.23 1974.87 575.17C1973.15 577.1 1965.63 578.98 1963.25 583.19C1960.88 587.39 1958.74 590.23 1965.64 589.19C1972.54 588.15 1983.75 583.1 1984.25 577.32C1984.57 573.47 1984.74 571.54 1984.74 571.54Z" />
					<g id="&lt;Group&gt;">
						<path id="&lt;Path&gt;" class="shp16" d="M1937.56 561.98C1963.32 560.99 1979.05 564.18 1984.74 571.54C1986 575.31 1988.56 578.91 1992.43 582.35L1993.34 584.81C1988.87 580.11 1985.84 577.61 1984.25 577.32C1986.74 568.2 1971.18 563.08 1937.56 561.98Z" />
						<path id="&lt;Path&gt;" class="shp16" d="M1992.43 582.35C1997.96 586.44 2000.92 592.13 2001.31 599.44L1999.8 599.58C1998.03 592.02 1995.55 586.77 1992.36 583.81C1989.17 580.86 1989.19 580.37 1992.43 582.35Z" />
					</g>
				</g>
				<g id="&lt;Group&gt;">
					<path id="&lt;Path&gt;" class="shp16" d="M2019.01 557.16C2008.61 551.34 2005.84 544.48 2010.69 536.58C2014.57 531.73 2018.59 528.68 2022.75 527.43C2020.53 539.21 2020.53 545.24 2022.75 545.52C2024.97 545.8 2025.73 539.15 2025.04 525.56C2035.99 520.3 2043.61 517.87 2047.91 518.29C2041.12 529.79 2038.83 535.4 2041.05 535.13C2043.26 534.85 2048.18 528.89 2055.81 517.25C2067.03 515.17 2073.55 517.45 2075.35 524.11C2078.05 534.09 2073.69 539.08 2071.19 539.7C2068.7 540.32 2052.69 540.12 2053.11 542.19C2053.52 544.27 2064.33 547.6 2070.36 545.73C2065.93 556.68 2060.8 561.88 2054.98 561.32C2046.24 560.49 2043.54 555.08 2038.14 554.67C2032.73 554.25 2028.78 555.71 2031.48 557.16C2034.19 558.62 2043.33 557.64 2047.7 561.35C2052.07 565.06 2055.6 567.35 2047.49 569.01C2039.38 570.68 2024.83 569.64 2021.92 563.4C2019.98 559.24 2019.01 557.16 2019.01 557.16Z" />
					<g id="&lt;Group&gt;">
						<path id="&lt;Path&gt;" class="shp16" d="M2067.66 527.23C2038.55 536.65 2022.34 546.63 2019.01 557.16C2019.15 561.88 2017.76 566.93 2014.85 572.34L2014.85 575.46C2017.9 568.39 2020.26 564.37 2021.92 563.4C2015.41 554.25 2030.65 542.19 2067.66 527.23Z" />
						<path id="&lt;Path&gt;" class="shp16" d="M2014.85 572.34C2010.36 579.16 2009.4 586.71 2011.96 595.01L2013.69 594.54C2012.57 585.41 2013.18 578.54 2015.53 573.94C2017.88 569.35 2017.65 568.81 2014.85 572.34Z" />
					</g>
				</g>
				<g id="&lt;Group&gt;">
					<path id="&lt;Path&gt;" class="shp17" d="M1994.2 545.12C2007.91 537.45 2011.56 528.4 2005.17 517.99C2000.05 511.6 1994.75 507.58 1989.27 505.93C1992.19 521.46 1992.19 529.41 1989.27 529.77C1986.35 530.14 1985.34 521.37 1986.26 503.47C1971.82 496.52 1961.77 493.33 1956.11 493.87C1965.06 509.04 1968.08 516.44 1965.15 516.07C1962.23 515.71 1955.74 507.85 1945.7 492.5C1930.9 489.76 1922.31 492.78 1919.94 501.55C1916.37 514.7 1922.13 521.28 1925.42 522.1C1928.71 522.92 1949.81 522.65 1949.26 525.39C1948.71 528.13 1934.46 532.51 1926.51 530.05C1932.36 544.48 1939.12 551.33 1946.79 550.6C1958.3 549.51 1961.86 542.38 1968.99 541.83C1976.12 541.28 1981.32 543.2 1977.76 545.12C1974.2 547.04 1962.14 545.75 1956.38 550.64C1950.63 555.53 1945.97 558.55 1956.66 560.74C1967.35 562.93 1986.53 561.56 1990.37 553.34C1992.92 547.86 1994.2 545.12 1994.2 545.12Z" />
					<g id="&lt;Group&gt;">
						<path id="&lt;Path&gt;" class="shp17" d="M1930.07 505.66C1968.44 518.08 1989.82 531.24 1994.2 545.12C1994.02 551.33 1995.85 558 1999.68 565.13L1999.68 569.24C1995.66 559.92 1992.56 554.62 1990.37 553.34C1998.95 541.28 1978.86 525.39 1930.07 505.66Z" />
						<path id="&lt;Path&gt;" class="shp17" d="M1999.68 565.13C2005.6 574.11 2006.87 584.07 2003.5 595.01L2001.22 594.4C2002.69 582.35 2001.88 573.3 1998.79 567.24C1995.69 561.18 1995.99 560.48 1999.68 565.13Z" />
					</g>
				</g>
				<path id="&lt;Path&gt;" class="shp17" d="M1994.9 630.59C1972.66 630.59 1954.63 612.56 1954.63 590.33L2035.16 590.33C2035.16 612.56 2017.13 630.59 1994.9 630.59Z" />
				<path id="&lt;Path&gt;" class="shp5" d="M1984.99 630.28C1986.63 630.48 1988.3 630.59 1989.99 630.59C2012.23 630.59 2030.25 612.56 2030.25 590.33L2020.25 590.33C2020.25 610.87 2004.86 627.82 1984.99 630.28Z" />
				<path id="&lt;Path&gt;" class="shp16" d="M1953.72 591.56L2036.48 591.56L2036.48 590.33L1953.72 590.33L1953.72 591.56Z" />
				<path id="&lt;Path&gt;" class="shp16" d="M2012.09 630.59L1974.39 630.59C1974.39 628.8 1975.84 627.36 1977.62 627.36L2008.86 627.36C2010.64 627.36 2012.09 628.8 2012.09 630.59Z" />
			</g>
			<path id="&lt;Path&gt;" class="shp18" d="M2115.31 1268.45L0.69 1268.45L0.69 736.91L2115.31 736.91L2115.31 1268.45Z" />
			<path id="&lt;Path&gt;" class="shp4" d="M2115.31 725.95L0.69 725.95L0.69 747.88L2115.31 747.88L2115.31 725.95Z" />
			<g id="&lt;Group&gt;" style="opacity: 0.702">
				<g id="&lt;Group&gt;">
					<path id="&lt;Path&gt;" class="shp13" d="M88.08 618.46L88.08 504.82C88.08 484.82 102.72 468.61 120.78 468.61L194.72 468.61C212.78 468.61 227.42 484.82 227.42 504.82L227.42 618.46L88.08 618.46Z" />
					<path id="&lt;Path&gt;" class="shp5" d="M95.94 618.46L95.94 504.82C95.94 484.82 110.58 468.61 128.64 468.61L202.58 468.61C220.63 468.61 235.27 484.82 235.27 504.82L235.27 618.46L95.94 618.46Z" />
					<path id="&lt;Path&gt;" class="shp13" d="M257.05 636.4L98.95 636.4C92.95 636.4 88.08 631.53 88.08 625.53L88.08 618.46L257.05 618.46L257.05 636.4Z" />
					<path id="&lt;Path&gt;" class="shp7" d="M275.99 636.4L156.39 636.4C151.95 636.4 148.35 632.8 148.35 628.36L148.35 626.5C148.35 622.06 151.95 618.46 156.39 618.46L275.99 618.46C280.43 618.46 284.03 622.06 284.03 626.5L284.03 628.36C284.03 632.8 280.43 636.4 275.99 636.4Z" />
					<g id="&lt;Group&gt;">
						<path id="&lt;Path&gt;" class="shp13" d="M176.42 766.16L166.22 766.16L163.36 636.4L178.94 636.4L176.42 766.16Z" />
						<path id="&lt;Path&gt;" class="shp13" d="M220.74 766.16L121.56 766.16L121.56 757.21L172.11 752.65L220.74 757.21L220.74 766.16Z" />
						<path id="&lt;Path&gt;" class="shp13" d="M111.93 764.76C111.93 760.25 115.58 756.6 120.09 756.6C124.59 756.6 128.24 760.25 128.24 764.76C128.24 769.26 124.59 772.92 120.09 772.92C115.58 772.92 111.93 769.26 111.93 764.76Z" />
						<path id="&lt;Path&gt;" class="shp13" d="M211.1 764.76C211.1 760.25 214.76 756.6 219.26 756.6C223.77 756.6 227.42 760.25 227.42 764.76C227.42 769.26 223.77 772.92 219.26 772.92C214.76 772.92 211.1 769.26 211.1 764.76Z" />
						<path id="&lt;Path&gt;" class="shp13" d="M217.18 644.91L125.12 644.91C120.42 644.91 116.6 641.1 116.6 636.4L225.7 636.4C225.7 641.1 221.88 644.91 217.18 644.91Z" />
					</g>
				</g>
				<g id="&lt;Group&gt;">
					<g id="&lt;Group&gt;">
						<path id="&lt;Path&gt;" class="shp16" d="M52.71 798.78L52.51 798.78C51.32 798.78 50.37 797.26 50.4 795.41L53.6 578.82L63.01 577.1L54.98 795.42C54.91 797.31 53.91 798.78 52.71 798.78Z" />
					</g>
					<g id="&lt;Group&gt;">
						<path id="&lt;Path&gt;" class="shp16" d="M486.64 798.78L486.84 798.78C488.02 798.78 488.97 797.26 488.95 795.41L485.75 578.82L476.34 577.1L484.37 795.42C484.43 797.31 485.43 798.78 486.64 798.78Z" />
					</g>
					<path id="&lt;Path&gt;" class="shp16" d="M501.33 582.8L36.08 582.8C33.04 582.8 30.58 580.34 30.58 577.3L30.58 575.23C30.58 572.2 33.04 569.73 36.08 569.73L501.33 569.73C504.36 569.73 506.83 572.2 506.83 575.23L506.83 577.3C506.83 580.34 504.36 582.8 501.33 582.8Z" />
				</g>
				<path id="&lt;Path&gt;" class="shp19" d="M451.87 553.56L318.18 553.56L327.13 461.65L460.82 461.65L451.87 553.56Z" />
				<path id="&lt;Path&gt;" class="shp16" d="M456.7 553.56L323.02 553.56L331.97 461.65L465.65 461.65L456.7 553.56Z" />
				<path id="&lt;Path&gt;" class="shp13" d="M397.48 567.51L373.76 567.51L381.52 514.54L405.24 514.54L397.48 567.51Z" />
				<path id="&lt;Path&gt;" class="shp13" d="M359.82 565.92L408.52 565.92L408.52 569.73L359.82 569.73L359.82 565.92Z" />
			</g>
			<g id="&lt;Group&gt;">
				<path id="&lt;Path&gt;" class="shp20" d="M1367.75 80.15L1044.41 80.15C1038.83 80.15 1034.31 75.63 1034.31 70.05C1034.31 64.47 1038.83 59.95 1044.41 59.95L1367.75 59.95C1373.33 59.95 1377.86 64.47 1377.86 70.05C1377.86 75.63 1373.33 80.15 1367.75 80.15Z" />
				<path id="&lt;Path&gt;" class="shp20" d="M1084.83 59.95L1074.72 59.95L1074.72 0.12L1084.83 0.12L1084.83 59.95Z" />
				<path id="&lt;Path&gt;" class="shp20" d="M1336.16 59.95L1326.05 59.95L1326.05 0.12L1336.16 0.12L1336.16 59.95Z" />
			</g>
			<g id="&lt;Group&gt;">
				<path id="&lt;Path&gt;" class="shp20" d="M2018.39 80.15L1695.05 80.15C1689.47 80.15 1684.95 75.63 1684.95 70.05C1684.95 64.47 1689.47 59.95 1695.05 59.95L2018.39 59.95C2023.97 59.95 2028.49 64.47 2028.49 70.05C2028.49 75.63 2023.97 80.15 2018.39 80.15Z" />
				<path id="&lt;Path&gt;" class="shp20" d="M1735.47 59.95L1725.36 59.95L1725.36 0.12L1735.47 0.12L1735.47 59.95Z" />
				<path id="&lt;Path&gt;" class="shp20" d="M1986.79 59.95L1976.69 59.95L1976.69 0.12L1986.79 0.12L1986.79 59.95Z" />
			</g>
			<g id="&lt;Group&gt;">
				<path id="&lt;Path&gt;" class="shp20" d="M419.95 80.15L96.62 80.15C91.04 80.15 86.51 75.63 86.51 70.05C86.51 64.47 91.04 59.95 96.62 59.95L419.95 59.95C425.53 59.95 430.06 64.47 430.06 70.05C430.06 75.63 425.53 80.15 419.95 80.15Z" />
				<path id="&lt;Path&gt;" class="shp20" d="M137.03 59.95L126.93 59.95L126.93 0.12L137.03 0.12L137.03 59.95Z" />
				<path id="&lt;Path&gt;" class="shp20" d="M388.36 59.95L378.25 59.95L378.25 0.12L388.36 0.12L388.36 59.95Z" />
			</g>
			<g id="&lt;Group&gt;">
				<path id="&lt;Path&gt;" class="shp16" d="M1931.07 632.65L1931.07 636.37C1931.07 637.68 1931.49 638.74 1932.01 638.74L2067.9 638.74C2068.42 638.74 2068.84 637.68 2068.84 636.37L2068.84 632.65C2068.84 631.35 2068.42 630.28 2067.9 630.28L1932.01 630.28C1931.49 630.28 1931.07 631.35 1931.07 632.65Z" />
				<path id="&lt;Path&gt;" class="shp5" d="M1931.07 632.65L1931.07 636.37C1931.07 637.68 1931.46 638.74 1931.93 638.74L2039.82 638.74C2040.29 638.74 2040.68 637.68 2040.68 636.37L2040.68 632.65C2040.68 631.35 2040.29 630.28 2039.82 630.28L1931.93 630.28C1931.46 630.28 1931.07 631.35 1931.07 632.65Z" />
				<path id="&lt;Path&gt;" class="shp13" d="M1965.46 779.36L2061.94 779.36L2061.94 638.74L1965.46 638.74L1965.46 779.36Z" />
				<path id="&lt;Path&gt;" class="shp7" d="M1938.43 779.36L2034.91 779.36L2034.91 638.74L1938.43 638.74L1938.43 779.36Z" />
				<g id="&lt;Group&gt;">
					<g id="&lt;Group&gt;">
						<path id="&lt;Compound Path&gt;" fill-rule="evenodd" class="shp13" d="M1943.61 642.71L2029.72 642.71L2029.72 771.6L1943.61 771.6L1943.61 642.71ZM2028.79 643.64L1944.54 643.64L1944.54 770.67L2028.79 770.67L2028.79 643.64Z" />
					</g>
					<g id="&lt;Group&gt;">
						<path id="&lt;Path&gt;" class="shp13" d="M1944.08 686.28L2029.26 686.28L2029.26 685.35L1944.08 685.35L1944.08 686.28Z" />
					</g>
					<g id="&lt;Group&gt;">
						<path id="&lt;Path&gt;" class="shp13" d="M1944.08 729.75L2029.26 729.75L2029.26 728.82L1944.08 728.82L1944.08 729.75Z" />
					</g>
					<path id="&lt;Path&gt;" class="shp13" d="M1977.94 651.03L1993.74 651.03C1994.51 651.03 1995.14 650.4 1995.14 649.63C1995.14 648.86 1994.51 648.24 1993.74 648.24L1977.94 648.24C1977.17 648.24 1976.54 648.86 1976.54 649.63C1976.54 650.4 1977.17 651.03 1977.94 651.03Z" />
					<path id="&lt;Path&gt;" class="shp13" d="M1977.94 693.53L1993.74 693.53C1994.51 693.53 1995.14 692.9 1995.14 692.14C1995.14 691.37 1994.51 690.74 1993.74 690.74L1977.94 690.74C1977.17 690.74 1976.54 691.37 1976.54 692.14C1976.54 692.9 1977.17 693.53 1977.94 693.53Z" />
					<path id="&lt;Path&gt;" class="shp13" d="M1977.94 737.84L1993.74 737.84C1994.51 737.84 1995.14 737.21 1995.14 736.45C1995.14 735.68 1994.51 735.05 1993.74 735.05L1977.94 735.05C1977.17 735.05 1976.54 735.68 1976.54 736.45C1976.54 737.21 1977.17 737.84 1977.94 737.84Z" />
				</g>
			</g>
			<g id="&lt;Group&gt;">
				<path id="&lt;Path&gt;" class="shp21" d="M837.42 881.84L818.38 881.84C814.39 881.84 809.96 877.85 808.85 870.53C807.74 863.21 799.53 859.22 797.75 853.23C796.57 849.23 799.01 844.43 805.08 838.8L806.6 836.85L808.18 834.81L823.26 838.36C823.51 840.75 823.71 843.48 823.87 846.53C824.03 849.83 824.12 853.65 823.93 857C823.48 864.98 826.17 873.58 833.26 875.14C837.99 876.17 839.38 878.41 837.42 881.84Z" />
				<path id="&lt;Path&gt;" class="shp22" d="M949.75 588.56C939.58 614.17 928.15 641.69 915.45 671.12C905.05 695.21 893.53 721.02 882.73 743.22C877.2 754.61 871.86 765.04 866.97 773.81C845.67 811.96 831.7 836.36 825.04 847.01C812.84 842.13 806.18 838.03 805.07 834.7C813.22 761.04 824.42 715.23 838.68 697.27C850.77 682.05 864.97 636.38 865.64 620.41C866.08 609.76 867.52 593.9 869.96 572.82L949.75 588.56Z" />
				<path id="&lt;Path&gt;" class="shp23" d="M919.01 595.49L915.45 671.12C905.05 695.21 893.53 721.02 882.73 743.22L874.3 614.65L919.01 595.49Z" />
				<g id="&lt;Group&gt;">
					<g id="&lt;Group&gt;">
						<path id="&lt;Path&gt;" class="shp24" d="M1022.41 456.25C1011.59 443.63 1011.25 433.3 1021.41 425.28C1028.83 420.79 1035.56 418.73 1041.61 419.1C1033.04 433.47 1030.14 441.37 1032.91 442.8C1035.68 444.23 1039.88 435.87 1045.5 417.74C1062.38 416.11 1073.54 416.59 1078.97 419.2C1064.54 431.01 1058.84 437.27 1061.88 437.97C1064.92 438.67 1074.23 433.23 1089.82 421.64C1105.53 424.31 1112.96 430.44 1112.13 440.03C1110.87 454.4 1102.75 458.84 1099.18 458.46C1095.61 458.08 1074.74 450.11 1074.28 453.03C1073.83 455.95 1086.39 465.51 1095.19 465.96C1084.12 478.17 1074.9 482.52 1067.54 478.99C1056.5 473.7 1055.55 465.32 1048.67 462.18C1041.79 459.03 1035.91 459.04 1038.75 462.25C1041.6 465.46 1054.05 468.57 1057.99 475.53C1061.92 482.5 1065.46 487.19 1054.03 485.47C1042.61 483.75 1024.04 475.39 1023.22 465.82C1022.68 459.44 1022.41 456.25 1022.41 456.25Z" />
						<g id="&lt;Group&gt;">
							<path id="&lt;Path&gt;" class="shp24" d="M1100.55 440.41C1057.88 438.77 1031.83 444.05 1022.41 456.25C1020.33 462.49 1016.08 468.46 1009.66 474.14L1008.16 478.22C1015.56 470.43 1020.58 466.3 1023.22 465.82C1019.09 450.71 1044.86 442.24 1100.55 440.41Z" />
							<path id="&lt;Path&gt;" class="shp24" d="M1009.66 474.14C1000.51 480.91 995.61 490.35 994.97 502.45L997.47 502.67C1000.39 490.16 1004.5 481.46 1009.78 476.56C1015.07 471.67 1015.03 470.86 1009.66 474.14Z" />
						</g>
					</g>
					<g id="&lt;Group&gt;">
						<path id="&lt;Path&gt;" class="shp25" d="M980.56 436.94C992.49 434.5 997.32 428.68 995.05 419.48C992.78 413.55 989.81 409.33 986.15 406.82C984.65 418.98 982.77 424.86 980.53 424.44C978.28 424.02 979.61 417.3 984.5 404.28C975.47 395.75 968.8 391.02 964.49 390.09C967.53 403.41 968.01 409.59 965.94 408.63C963.86 407.67 960.92 400.33 957.11 386.62C946.82 381.11 939.76 381.31 935.94 387.23C930.21 396.11 932.91 402.33 935.15 403.71C937.38 405.1 953.04 409.87 951.99 411.76C950.94 413.66 939.37 413.54 934.08 409.84C935 421.89 938.38 428.55 944.22 429.82C952.99 431.72 957.3 427.29 962.7 428.57C968.09 429.84 971.49 432.49 968.4 433.07C965.32 433.65 956.71 429.85 951.3 432.11C945.9 434.37 941.74 435.5 949.12 439.64C956.51 443.78 971.01 447.29 975.78 442.12C978.96 438.67 980.56 436.94 980.56 436.94Z" />
						<g id="&lt;Group&gt;">
							<path id="&lt;Path&gt;" class="shp24" d="M942.47 392.66C967.89 410.89 980.59 425.65 980.56 436.94C978.96 441.49 978.73 446.85 979.89 453.02L978.32 452.29C977.29 446.73 976.45 443.34 975.78 442.12C984.97 435.23 973.87 418.74 942.47 392.66Z" />
							<path id="&lt;Path&gt;" class="shp24" d="M979.89 453.02C983.95 468.62 983.45 480.07 978.38 487.35L976.44 487.35C981.76 482.41 982.52 471.41 978.73 454.37C977.58 449.22 977.97 448.77 979.89 453.02Z" />
						</g>
					</g>
					<g id="&lt;Group&gt;">
						<path id="&lt;Path&gt;" class="shp25" d="M1006.73 412.49C984.04 399.79 977.99 384.81 988.58 367.56C997.05 356.97 1005.83 350.32 1014.9 347.59C1010.06 373.31 1010.06 386.47 1014.9 387.08C1019.75 387.68 1021.41 373.16 1019.9 343.51C1043.8 332.01 1060.44 326.72 1069.82 327.62C1054.99 352.74 1050 364.99 1054.84 364.39C1059.68 363.78 1070.42 350.77 1087.07 325.36C1111.57 320.82 1125.79 325.81 1129.73 340.33C1135.63 362.12 1126.1 373.01 1120.65 374.37C1115.2 375.73 1080.26 375.28 1081.16 379.82C1082.07 384.35 1105.67 391.62 1118.83 387.53C1109.15 411.43 1097.96 422.78 1085.25 421.57C1066.19 419.75 1060.29 407.95 1048.49 407.05C1036.69 406.14 1028.07 409.32 1033.97 412.49C1039.87 415.67 1059.83 413.53 1069.37 421.64C1078.9 429.74 1086.61 434.73 1068.91 438.36C1051.21 441.99 1019.44 439.72 1013.09 426.11C1008.85 417.03 1006.73 412.49 1006.73 412.49Z" />
						<g id="&lt;Group&gt;">
							<path id="&lt;Path&gt;" class="shp24" d="M1112.93 347.14C1049.4 367.71 1014 389.5 1006.73 412.49C1007.04 422.78 1004.01 433.82 997.66 445.62L997.66 452.43C1004.31 437 1009.46 428.23 1013.09 426.11C998.87 406.14 1032.15 379.82 1112.93 347.14Z" />
							<path id="&lt;Path&gt;" class="shp24" d="M997.66 445.62C987.86 460.5 985.75 477 991.34 495.11L995.12 494.1C992.67 474.15 994.01 459.15 999.14 449.12C1004.27 439.09 1003.77 437.92 997.66 445.62Z" />
						</g>
					</g>
					<path id="&lt;Path&gt;" class="shp16" d="M1072.26 487.35C1072.26 524.18 1042.41 554.03 1005.59 554.03C997.9 554.03 990.52 552.73 983.65 550.33C957.6 541.26 938.91 516.49 938.91 487.35L1072.26 487.35Z" />
					<path id="&lt;Path&gt;" class="shp26" d="M1073.78 489.4L936.72 489.4L936.72 487.35L1073.78 487.35L1073.78 489.4Z" />
				</g>
				<path id="&lt;Path&gt;" class="shp27" d="M1041.26 526.1C1044.07 524.27 1050.44 520.26 1050.73 521.22C1050.93 521.91 1050.56 523.05 1049.76 524.23C1055.33 526.32 1059.32 516.68 1064.02 519.49C1065.59 520.44 1064.55 531.89 1058 535.8C1051.45 539.72 1045.19 541.59 1040.62 538.49L1034.39 537.2L1034.01 526.85C1036.41 526.66 1038.82 526.41 1041.26 526.1Z" />
				<path id="&lt;Path&gt;" class="shp27" d="M878.94 419.52C890.8 429.21 902.45 430.49 913.9 423.36C915.35 416.43 915.65 410.6 914.8 405.85C914.64 404.98 914.5 404.13 914.36 403.32C913.43 397.97 912.77 393.79 912.39 390.76C912.38 390.76 912.38 390.76 912.37 390.76C911.46 390.56 881.86 384.43 882.06 385.37C885.08 399.74 884.04 411.12 878.94 419.52Z" />
				<path id="&lt;Path&gt;" class="shp28" d="M885.79 390.01C889.36 394.43 900.25 402.33 914.36 403.32C913.43 397.97 912.77 393.79 912.39 390.76C912.38 390.76 912.38 390.76 912.37 390.76C911.57 390.7 884.73 388.71 885.79 390.01Z" />
				<path id="&lt;Path&gt;" class="shp27" d="M917.99 388.85C898.29 397.55 885.83 395.73 880.59 383.38C872.74 364.86 863.64 354.07 882.17 344.95C900.7 335.83 907.39 341.33 911.51 346.88C915.64 352.42 925.47 384.97 917.99 388.85Z" />
				<path id="&lt;Path&gt;" class="shp29" d="M882.64 388.45C882.26 388.8 876 392.09 858.7 369.36C855.98 365.79 853.04 357.53 856.24 349.13C859.43 340.74 874.66 331.76 887.76 326.64C893.9 324.23 899.76 324.7 904.24 325.88C909.76 327.32 913.01 333.11 911.44 338.59C908.97 347.26 902.82 352.58 895.05 352.35C889.84 352.19 890.17 362.83 890.27 365.36C890.36 367.9 890.19 370.06 883.63 369C878.01 368.1 881.18 375.52 883.07 378.86C884 380.5 884.52 382.37 884.41 384.26C884.32 385.72 883.88 387.28 882.64 388.45Z" />
				<path id="&lt;Path&gt;" class="shp21" d="M969.97 881.84L919.5 881.84C919.02 881.75 918.65 881.64 918.43 881.53C915.06 879.84 916.12 866.94 916.52 862.96C916.57 862.46 916.62 862.07 916.65 861.79C928.49 852.32 935.21 851.21 936.84 858.46C936.92 858.8 937.01 859.13 937.1 859.46L937.1 859.47C940.19 869.63 953.96 874.25 961.91 875.54C967.99 876.53 969.57 880.07 969.97 881.84Z" />
				<path id="&lt;Path&gt;" class="shp22" d="M959.8 590.79C958 613.21 956.05 637.9 953.94 664.84C949.63 719.76 944.45 787.2 943.94 799.98C943.35 814.77 941.87 834 939.5 857.66C933.89 863.28 925.46 864.91 914.21 862.54C904.2 828.76 897.76 794 894.89 758.27C894.83 757.39 894.76 756.5 894.69 755.62C892.03 719.24 883.39 662.02 868.76 583.97L959.8 590.79Z" />
				<path id="&lt;Path&gt;" class="shp29" d="M952.31 586.14C945.2 586.57 870.13 583.73 870.11 579.53C870.04 564.95 867 541.35 863.19 512.68C862.49 507.34 861.95 502.04 861.54 496.8C860.49 483.15 860.44 470.01 861.46 458.14C863.35 436.09 872.71 418.31 882.27 410.02C883.52 408.97 888.15 412.48 895.91 415.63C903.08 418.53 908.76 416.45 915.2 414.65L923.44 421.9C930.3 428.29 937.64 438.03 941.22 446.8C949.04 539.66 952.74 586.11 952.31 586.14Z" />
				<path id="&lt;Path&gt;" class="shp22" d="M941.22 446.8L920.72 451.57L892.5 527.99C888.45 538.96 877.99 546.25 866.29 546.25L866.29 546.25L868.76 583.97L959.8 590.79L941.22 446.8Z" />
				<path id="&lt;Path&gt;" class="shp29" d="M1039.54 531.89C1039.98 527.91 1039.17 525.55 1037.13 524.8C996.84 515.88 974.99 510.81 971.58 509.59C968.18 508.37 952.32 491.85 924.01 460.03C913.2 446.84 903.11 441.48 893.75 443.94C881.54 447.14 876.46 456.37 874.51 465.27C872.18 475.88 876.69 486.82 885.72 492.86C906 506.4 946.61 533.11 956.29 536.36C970.66 541.18 997.44 542.39 1036.63 539.98C1038.23 537.71 1039.2 535.01 1039.54 531.89Z" />
				<path id="&lt;Path&gt;" class="shp23" d="M899.47 429.43C896.28 426.48 889.59 420.94 879.39 412.81L882.27 410.02C884.31 409.58 900.13 421.49 905.4 426.18C909.63 429.94 917.61 437.98 929.35 450.28L920.72 451.57C910.3 440.29 903.21 432.91 899.47 429.43Z" />
			</g>
			<g id="&lt;Group&gt;">
				<path id="&lt;Path&gt;" class="shp30" d="M1976.11 934.96L1810.17 934.96L1810.17 798.14L1976.11 798.14L1976.11 934.96Z" />
				<path id="&lt;Path&gt;" class="shp22" d="M1893.14 934.96L1727.2 934.96L1727.2 798.14L1893.14 798.14L1893.14 934.96Z" />
				<path id="&lt;Path&gt;" class="shp31" d="M1976.01 900.26L1949.72 900.26L1952.04 892.87L1949.72 887.58L1976.01 887.58L1976.01 900.26Z" />
				<path id="&lt;Path&gt;" class="shp27" d="M1893.14 840.48L1866.85 840.48L1869.16 833.08L1866.85 827.79L1893.14 827.79L1893.14 840.48Z" />
				<path id="&lt;Path&gt;" class="shp31" d="M1893.14 827.79L1919.44 827.79L1917.12 835.19L1919.44 840.48L1893.14 840.48L1893.14 827.79Z" />
				<path id="&lt;Path&gt;" class="shp27" d="M1727.2 901.73L1753.49 901.73L1751.18 909.13L1753.49 914.42L1727.2 914.42L1727.2 901.73Z" />
				<path id="&lt;Path&gt;" class="shp20" d="M1738.07 825.99L1785.82 825.99L1785.82 807.41L1738.07 807.41L1738.07 825.99Z" />
			</g>
			<g id="&lt;Group&gt;" style="opacity: 0.702">
				<path id="&lt;Path&gt;" class="shp13" d="M1570.51 624.31L1570.51 514.35C1570.51 495.01 1584.68 479.32 1602.15 479.32L1673.69 479.32C1691.16 479.32 1705.33 495.01 1705.33 514.35L1705.33 624.31L1570.51 624.31Z" />
				<path id="&lt;Path&gt;" class="shp5" d="M1578.11 624.31L1578.11 514.35C1578.11 495.01 1592.28 479.32 1609.75 479.32L1681.29 479.32C1698.76 479.32 1712.93 495.01 1712.93 514.35L1712.93 624.31L1578.11 624.31Z" />
				<path id="&lt;Path&gt;" class="shp13" d="M1733.99 641.67L1581.03 641.67C1575.22 641.67 1570.51 636.96 1570.51 631.15L1570.51 624.31L1733.99 624.31L1733.99 641.67Z" />
				<path id="&lt;Path&gt;" class="shp7" d="M1752.32 641.67L1636.6 641.67C1632.3 641.67 1628.82 638.19 1628.82 633.89L1628.82 632.09C1628.82 627.79 1632.3 624.31 1636.6 624.31L1752.32 624.31C1756.62 624.31 1760.1 627.79 1760.1 632.09L1760.1 633.89C1760.1 638.19 1756.62 641.67 1752.32 641.67Z" />
				<g id="&lt;Group&gt;">
					<path id="&lt;Path&gt;" class="shp13" d="M1655.98 767.22L1646.12 767.22L1643.35 641.67L1658.42 641.67L1655.98 767.22Z" />
					<path id="&lt;Path&gt;" class="shp13" d="M1698.86 767.22L1602.9 767.22L1602.9 758.56L1651.81 754.14L1698.86 758.56L1698.86 767.22Z" />
					<path id="&lt;Path&gt;" class="shp13" d="M1593.58 765.86C1593.58 761.5 1597.12 757.97 1601.48 757.97C1605.84 757.97 1609.37 761.5 1609.37 765.86C1609.37 770.22 1605.84 773.76 1601.48 773.76C1597.12 773.76 1593.58 770.22 1593.58 765.86Z" />
					<path id="&lt;Path&gt;" class="shp13" d="M1689.54 765.86C1689.54 761.5 1693.07 757.97 1697.43 757.97C1701.79 757.97 1705.33 761.5 1705.33 765.86C1705.33 770.22 1701.79 773.76 1697.43 773.76C1693.07 773.76 1689.54 770.22 1689.54 765.86Z" />
					<path id="&lt;Path&gt;" class="shp13" d="M1695.42 649.91L1606.34 649.91C1601.79 649.91 1598.11 646.22 1598.11 641.67L1703.66 641.67C1703.66 646.22 1699.97 649.91 1695.42 649.91Z" />
				</g>
				<g id="&lt;Group&gt;">
					<g id="&lt;Group&gt;">
						<path id="&lt;Path&gt;" class="shp16" d="M1892.3 798.78L1892.5 798.78C1893.64 798.78 1894.56 797.31 1894.54 795.52L1891.45 585.95L1882.34 584.29L1890.11 795.53C1890.17 797.35 1891.14 798.78 1892.3 798.78Z" />
					</g>
					<path id="&lt;Path&gt;" class="shp16" d="M1906.51 589.81L1456.37 589.81C1453.43 589.81 1451.04 587.43 1451.04 584.49L1451.04 582.49C1451.04 579.55 1453.43 577.16 1456.37 577.16L1906.51 577.16C1909.45 577.16 1911.84 579.55 1911.84 582.49L1911.84 584.49C1911.84 587.43 1909.45 589.81 1906.51 589.81Z" />
				</g>
				<path id="&lt;Path&gt;" class="shp19" d="M1858.66 561.51L1729.31 561.51L1737.98 472.59L1867.32 472.59L1858.66 561.51Z" />
				<path id="&lt;Path&gt;" class="shp16" d="M1863.34 561.51L1733.99 561.51L1742.65 472.59L1872 472.59L1863.34 561.51Z" />
				<path id="&lt;Path&gt;" class="shp13" d="M1806.04 575.01L1783.09 575.01L1790.6 523.76L1813.55 523.76L1806.04 575.01Z" />
				<path id="&lt;Path&gt;" class="shp13" d="M1769.6 573.47L1816.72 573.47L1816.72 577.16L1769.6 577.16L1769.6 573.47Z" />
			</g>
			<g id="man 2 ">
				<g id="&lt;Group&gt;">
					<path id="&lt;Path&gt;" class="shp21" d="M1562.1 1026.48C1569.84 1033.66 1572.96 1039.8 1571.45 1044.9C1569.18 1052.55 1558.7 1057.64 1557.28 1066.99C1555.87 1076.34 1550.2 1081.44 1545.1 1081.44C1541.7 1081.44 1533.6 1081.44 1520.79 1081.44C1518.29 1077.06 1520.06 1074.2 1526.1 1072.88C1535.17 1070.9 1538.59 1059.91 1538.02 1049.71C1537.64 1042.91 1537.92 1034.98 1538.87 1025.91L1558.13 1021.38L1562.1 1026.48Z" />
					<path id="&lt;Path&gt;" class="shp21" d="M1419.6 1055.83C1421.48 1070.94 1420.73 1079.35 1417.33 1081.05C1413.93 1082.75 1391.93 1083.31 1351.32 1082.75C1351.32 1077.65 1354.81 1074.53 1361.8 1073.4C1372.28 1071.7 1390.7 1065.47 1393.81 1051.58C1395.89 1042.33 1404.49 1043.75 1419.6 1055.83Z" />
					<path id="&lt;Path&gt;" class="shp12" d="M1364.5 709.74C1366.79 738.37 1369.29 769.9 1371.98 804.31C1377.48 874.44 1384.1 960.58 1384.75 976.9C1385.5 995.79 1387.39 1020.34 1390.42 1050.56C1397.59 1057.74 1408.36 1059.82 1422.72 1056.79C1435.51 1013.65 1443.73 969.27 1447.39 923.63C1447.47 922.5 1447.56 921.37 1447.64 920.24C1451.04 873.78 1455.39 801.63 1460.67 703.79L1364.5 709.74Z" />
					<path id="&lt;Path&gt;" class="shp23" d="M1392.11 744.08L1447.39 923.63C1447.47 922.5 1447.56 921.37 1447.64 920.24C1451.04 873.78 1455.39 801.63 1460.67 703.79L1392.11 744.08Z" />
					<path id="&lt;Path&gt;" class="shp12" d="M1380.22 714.84C1421.58 818.53 1455.86 894.74 1483.06 943.47C1510.25 992.2 1528.1 1023.36 1536.6 1036.96C1552.18 1030.73 1560.68 1025.49 1562.1 1021.24C1551.7 927.17 1537.39 868.66 1519.18 845.73C1503.74 826.29 1485.61 767.96 1484.76 747.56C1484.19 733.96 1482.35 713.71 1479.23 686.79L1380.22 714.84Z" />
				</g>
				<g id="&lt;Group&gt;">
					<path id="&lt;Path&gt;" class="shp27" d="M1302.31 765.54C1292.96 778.75 1287.86 786.62 1287.02 789.15C1285.75 792.94 1285.83 808.05 1286.8 808.65C1287.77 809.25 1288.87 808.99 1289.94 806.83C1291.01 804.66 1293.09 796.94 1293.79 797.78C1294.48 798.61 1289.93 821.43 1294.08 823.41C1298.23 825.4 1310.9 817.09 1315.46 807.53C1320.02 797.98 1316.58 774.09 1317.12 772.38C1320.15 762.73 1315.21 760.45 1302.31 765.54Z" />
					<path id="&lt;Path&gt;" class="shp32" d="M1306.92 775.86C1301.67 774.75 1298.77 773.83 1298.25 773.1C1299.12 721.4 1299.5 693.13 1299.37 688.28C1299.24 683.43 1288.9 648.25 1268.37 582.77L1321.11 529.59C1334.02 622.34 1340.52 674.87 1340.61 687.17C1340.76 707.5 1333.3 736.87 1318.24 775.28C1314.82 776.54 1311.05 776.73 1306.92 775.86Z" />
				</g>
				<path id="&lt;Path&gt;" class="shp27" d="M1303.16 516.28C1293.79 549.12 1281.56 569.38 1266.45 577.06C1265.19 569.75 1265.12 562.66 1266.23 555.79C1266.73 552.72 1265.53 549.61 1263.05 547.73C1261.65 546.67 1260.34 545.66 1259.12 544.7C1253.83 540.51 1249.83 537.07 1247.14 534.38L1249.95 510.45L1251.86 494.22C1255.7 498.4 1259.64 501.8 1263.55 504.58C1277 514.09 1290.2 517.99 1303.16 516.28Z" />
				<path id="&lt;Path&gt;" class="shp28" d="M1263.55 504.58C1269.03 518.56 1267.56 531.93 1259.12 544.7C1253.83 540.51 1249.83 537.07 1247.14 534.38L1249.95 510.45C1255.35 507.25 1259.89 505.3 1263.55 504.58Z" />
				<path id="&lt;Path&gt;" class="shp27" d="M1241.44 539.16C1263.61 523.63 1269.76 509.04 1259.88 495.38C1245.06 474.9 1239.37 458.09 1217.51 472.1C1195.65 486.1 1197.23 496.87 1200.51 504.91C1203.79 512.95 1232.41 544.68 1241.44 539.16Z" />
				<path id="&lt;Path&gt;" class="shp29" d="M1314.82 666.83C1313.17 664.94 1311.48 663.04 1309.74 661.13C1300.86 651.46 1292.76 640.94 1285.95 630.35C1280.65 622.14 1276.15 613.89 1272.69 606.01C1267.59 594.39 1265.58 584.8 1265.07 574.73C1265.07 574.65 1265.04 559.11 1265.05 559.05C1278.75 548.15 1285.23 533.27 1284.49 514.44C1339.49 511.04 1390.31 540.87 1436.95 603.9C1440.14 608.64 1443.9 614.54 1448.25 621.59C1449.66 623.89 1451.16 626.35 1452.71 628.95C1463.26 646.55 1336.78 692.05 1314.82 666.83Z" />
				<path id="&lt;Path&gt;" class="shp32" d="M1360.16 592.7C1374.88 597.52 1411.44 603.67 1421.05 630.07C1424.2 638.72 1445.67 620.26 1448.87 622.6L1432.16 595.87L1360.16 592.7Z" />
				<path id="&lt;Path&gt;" class="shp26" d="M1254.85 451.84C1254.98 451.27 1255.6 450.54 1257.28 449.54C1256.05 449.44 1254.81 449.69 1253.55 450.31C1251.91 448.04 1248.35 444.36 1243.64 445.48C1245.55 445.51 1247.06 446.34 1248.16 447.98C1240.72 445.47 1228.48 447.19 1201.08 464.4C1164.96 487.08 1190.17 505.11 1196.57 505.49C1202.97 505.87 1211.08 491.45 1220.55 487.44C1230.03 483.43 1238.72 495.87 1242.75 496.1C1246.79 496.32 1243.89 493.71 1247.07 489.62C1250.24 485.53 1254.3 492.34 1255.47 497.54C1256.26 501 1259.61 503.74 1265.53 505.77C1265.53 505.77 1266.36 502.65 1268.02 496.41C1270.5 487.05 1261.97 457.36 1256.35 453.01C1255.85 452.62 1255.35 452.23 1254.85 451.84Z" />
				<path id="&lt;Path&gt;" class="shp12" d="M1452.62 717.64C1442.99 742.57 1383.07 752.6 1378.59 739.4C1377.53 736.31 1368.41 755.22 1367.83 751.59C1360.16 703.79 1336.78 692.05 1314.82 666.83C1313.17 664.94 1311.48 663.04 1309.74 661.13C1300.86 651.46 1292.76 640.94 1285.95 630.35C1280.65 622.14 1276.15 613.89 1272.69 606.01L1308.73 580.59C1315.65 575.71 1325.1 576.74 1330.81 583C1345.46 599.06 1375.11 626.45 1405.86 625.1C1428.01 624.13 1440.92 622.73 1448.25 621.59C1449.66 623.89 1451.16 626.35 1452.71 628.95C1463.26 646.55 1477.21 668.42 1479.23 686.79C1480.79 700.96 1454.34 713.15 1452.62 717.64Z" />
				<path id="&lt;Path&gt;" class="shp12" d="M1290.52 514.48C1286.91 522.24 1286.23 534.73 1288.47 551.96C1290.37 566.59 1294.1 579.08 1299.67 589.45L1305.95 585.54C1293.8 562.96 1290.85 539.44 1297.11 514.97C1296.73 514.67 1294.54 514.51 1290.52 514.48Z" />
				<g id="&lt;Group&gt;">
					<g id="&lt;Group&gt;">
						<path id="&lt;Path&gt;" class="shp33" d="M1775.18 1068.44C1775.18 1060.9 1781.29 1054.79 1788.83 1054.79C1796.38 1054.79 1802.49 1060.9 1802.49 1068.44C1802.49 1075.99 1796.38 1082.1 1788.83 1082.1C1781.29 1082.1 1775.18 1075.99 1775.18 1068.44Z" />
						<path id="&lt;Path&gt;" class="shp34" d="M1780.49 1068.44C1780.49 1063.84 1784.23 1060.1 1788.83 1060.1C1793.44 1060.1 1797.18 1063.84 1797.18 1068.44C1797.18 1073.05 1793.44 1076.79 1788.83 1076.79C1784.23 1076.79 1780.49 1073.05 1780.49 1068.44Z" />
					</g>
					<g id="&lt;Group&gt;">
						<path id="&lt;Path&gt;" class="shp16" d="M1679.32 1054.64C1676.78 1054.64 1625.76 1054.14 1590.65 1016.3C1566.54 990.32 1556.12 953.52 1559.68 906.91C1566.95 811.73 1551.4 734.72 1517.02 695.62C1501.54 678.02 1482.57 668.51 1460.64 667.36C1423.1 665.39 1387.91 708.47 1387.55 708.9L1374.88 698.68C1376.52 696.63 1415.77 648.71 1461.49 651.09C1487.97 652.48 1510.77 663.84 1529.26 684.87C1548.26 706.48 1561.94 737.44 1569.92 776.88C1577.64 815.05 1579.66 859.22 1575.92 908.15C1572.72 950.05 1581.69 982.71 1602.58 1005.21C1633.02 1038.01 1678.77 1038.35 1679.32 1038.35L1679.33 1038.35L1679.35 1054.64C1679.34 1054.64 1679.33 1054.64 1679.32 1054.64Z" />
					</g>
					<path id="&lt;Path&gt;" class="shp33" d="M1820.89 1061.91C1817.37 1065.4 1812.5 1067.62 1806.94 1067.62L1662.03 1067.62C1654.13 1067.62 1648.4 1060.07 1650.56 1052.47C1656.48 1031.57 1669.2 995.13 1688.5 983.26C1691.72 981.27 1695.68 979.77 1700.21 978.74C1734.39 970.98 1800.62 990.57 1823.76 1036.96C1824.14 1037.63 1824.58 1038.55 1825.11 1039.72C1828.69 1047.75 1826.45 1056.41 1820.89 1061.91Z" />
					<g id="&lt;Group&gt;">
						<path id="&lt;Path&gt;" class="shp26" d="M1395.39 710.53L1199.36 969.91L1124.95 1068.37L1112.36 1059.19L1183.75 958.52L1371.81 693.33L1395.39 710.53Z" />
						<path id="&lt;Path&gt;" class="shp33" d="M1199.36 969.91L1124.95 1068.37L1112.36 1059.19L1183.75 958.52L1199.36 969.91Z" />
					</g>
					<path id="&lt;Path&gt;" class="shp34" d="M1150.15 1065.42L1150.15 1073.76C1150.15 1077.9 1146.76 1081.28 1142.64 1081.28L1069.72 1081.28C1065.58 1081.28 1062.2 1077.9 1062.2 1073.76L1062.2 1065.42C1062.2 1061.29 1065.58 1057.91 1069.72 1057.91L1142.64 1057.91C1146.76 1057.91 1150.15 1061.29 1150.15 1065.42Z" />
					<path id="&lt;Path&gt;" class="shp33" d="M1132.26 1065.42L1132.26 1073.76C1132.26 1077.9 1128.88 1081.28 1124.75 1081.28L1069.72 1081.28C1065.58 1081.28 1062.2 1077.9 1062.2 1073.76L1062.2 1065.42C1062.2 1061.29 1065.58 1057.91 1069.72 1057.91L1124.75 1057.91C1128.88 1057.91 1132.26 1061.29 1132.26 1065.42Z" />
					<path id="&lt;Path&gt;" class="shp35" d="M1820.89 1061.91C1817.37 1065.4 1812.5 1067.62 1806.94 1067.62L1662.03 1067.62C1654.13 1067.62 1648.4 1060.07 1650.56 1052.47C1656.48 1031.57 1669.2 995.13 1688.5 983.26C1691.72 981.27 1695.68 979.77 1700.21 978.74C1713.42 1003.73 1749.48 1057.1 1820.89 1061.91Z" />
					<g id="&lt;Group&gt;">
						<path id="&lt;Path&gt;" class="shp32" d="M1673.19 1049.46C1673.19 1031.44 1687.81 1016.83 1705.83 1016.83C1723.86 1016.83 1738.47 1031.44 1738.47 1049.46C1738.47 1067.49 1723.86 1082.1 1705.83 1082.1C1687.81 1082.1 1673.19 1067.49 1673.19 1049.46Z" />
						<path id="&lt;Path&gt;" class="shp29" d="M1685.9 1049.46C1685.9 1038.45 1694.82 1029.53 1705.83 1029.53C1716.84 1029.53 1725.77 1038.45 1725.77 1049.46C1725.77 1060.47 1716.84 1069.4 1705.83 1069.4C1694.82 1069.4 1685.9 1060.47 1685.9 1049.46Z" />
					</g>
				</g>
				<path id="&lt;Path&gt;" class="shp27" d="M1491.28 649.37C1488.34 661.49 1486.93 668.57 1487.04 670.62C1487.21 673.69 1489.65 683.06 1490.52 683.22C1491.39 683.37 1494.03 683.8 1494.18 681.94C1494.32 680.09 1493.33 678.22 1494.07 678.62C1494.8 679.02 1494.19 686.01 1497.73 686.25C1501.26 686.49 1512.08 683.82 1512.63 675.69C1513.17 667.56 1503.92 651.43 1503.82 650.06C1503.25 642.29 1499.07 642.06 1491.28 649.37Z" />
				<path id="&lt;Path&gt;" class="shp29" d="M1498.82 651.01C1493.19 651.94 1488.43 651.94 1484.56 651.01C1452.89 618.94 1434.84 601.59 1430.41 598.94C1425.98 596.3 1395.35 593.46 1338.52 590.42C1330.54 582.7 1323.65 572.57 1317.86 560.03C1312.83 549.13 1306.76 534.21 1299.67 515.26C1312.73 515.16 1324.21 516.61 1334.1 519.59C1367.41 529.63 1433.65 550.11 1446.01 557.83C1464.35 569.27 1485.26 597.59 1508.74 642.79C1506.73 647.51 1503.42 650.25 1498.82 651.01Z" />
				<path id="&lt;Path&gt;" class="shp23" d="M1307.62 592.12C1307.62 590.16 1309.21 588.57 1311.17 588.57C1313.13 588.57 1314.72 590.16 1314.72 592.12C1314.72 594.08 1313.13 595.67 1311.17 595.67C1309.21 595.67 1307.62 594.08 1307.62 592.12Z" />
			</g>
			<g id="&lt;Group&gt;">
				<path id="&lt;Path&gt;" class="shp36" d="M1883.91 247.13L1778.41 247.13C1773.57 247.13 1769.6 243.17 1769.6 238.32L1769.6 136.49C1769.6 131.65 1773.57 127.69 1778.41 127.69L1883.91 127.69C1888.76 127.69 1892.72 131.65 1892.72 136.49L1892.72 238.32C1892.72 243.17 1888.76 247.13 1883.91 247.13Z" />
				<path id="&lt;Path&gt;" class="shp37" d="M1879.34 241.96L1782.98 241.96C1778.56 241.96 1774.94 238.34 1774.94 233.91L1774.94 140.91C1774.94 136.48 1778.56 132.86 1782.98 132.86L1879.34 132.86C1883.77 132.86 1887.39 136.48 1887.39 140.91L1887.39 233.91C1887.39 238.34 1883.77 241.96 1879.34 241.96Z" />
				<g id="&lt;Group&gt;">
					<g id="&lt;Group&gt;">
						<path id="&lt;Path&gt;" class="shp38" d="M1828.61 143.76C1828.61 142.35 1829.75 141.21 1831.16 141.21C1832.57 141.21 1833.71 142.35 1833.71 143.76C1833.71 145.17 1832.57 146.31 1831.16 146.31C1829.75 146.31 1828.61 145.17 1828.61 143.76Z" />
						<path id="&lt;Path&gt;" class="shp38" d="M1849.19 147.37C1849.87 146.14 1851.43 145.69 1852.66 146.38C1853.89 147.06 1854.33 148.61 1853.65 149.85C1852.96 151.08 1851.41 151.52 1850.18 150.84C1848.95 150.15 1848.51 148.6 1849.19 147.37Z" />
						<path id="&lt;Path&gt;" class="shp38" d="M1866.82 161.37C1868 160.61 1869.58 160.95 1870.35 162.14C1871.11 163.32 1870.77 164.9 1869.59 165.66C1868.4 166.42 1866.82 166.08 1866.06 164.9C1865.3 163.72 1865.64 162.14 1866.82 161.37Z" />
						<path id="&lt;Path&gt;" class="shp38" d="M1875.55 183.05C1876.96 183.05 1878.1 184.2 1878.1 185.6C1878.1 187.01 1876.96 188.15 1875.55 188.15C1874.14 188.15 1873 187.01 1873 185.6C1873 184.2 1874.14 183.05 1875.55 183.05Z" />
						<path id="&lt;Path&gt;" class="shp38" d="M1871.09 208.21C1872.09 209.21 1872.09 210.82 1871.09 211.82C1870.1 212.82 1868.48 212.82 1867.49 211.82C1866.49 210.82 1866.49 209.21 1867.49 208.21C1868.48 207.22 1870.1 207.22 1871.09 208.21Z" />
						<path id="&lt;Path&gt;" class="shp38" d="M1855.08 224.27C1856.08 225.27 1856.08 226.88 1855.08 227.88C1854.08 228.87 1852.47 228.87 1851.47 227.88C1850.48 226.88 1850.48 225.27 1851.47 224.27C1852.47 223.27 1854.08 223.27 1855.08 224.27Z" />
						<path id="&lt;Path&gt;" class="shp38" d="M1828.61 232.55C1828.61 231.14 1829.75 230 1831.16 230C1832.57 230 1833.71 231.14 1833.71 232.55C1833.71 233.96 1832.57 235.1 1831.16 235.1C1829.75 235.1 1828.61 233.96 1828.61 232.55Z" />
					</g>
					<g id="&lt;Group&gt;">
						<path id="&lt;Path&gt;" class="shp38" d="M1813.05 147.37C1812.37 146.14 1810.82 145.69 1809.58 146.38C1808.35 147.06 1807.91 148.61 1808.59 149.85C1809.28 151.08 1810.83 151.52 1812.06 150.84C1813.29 150.15 1813.74 148.6 1813.05 147.37Z" />
						<path id="&lt;Path&gt;" class="shp38" d="M1795.42 161.37C1794.24 160.61 1792.66 160.95 1791.9 162.14C1791.13 163.32 1791.47 164.9 1792.66 165.66C1793.84 166.42 1795.42 166.08 1796.18 164.9C1796.95 163.72 1796.6 162.14 1795.42 161.37Z" />
						<path id="&lt;Path&gt;" class="shp38" d="M1786.69 183.05C1785.28 183.05 1784.14 184.2 1784.14 185.6C1784.14 187.01 1785.28 188.15 1786.69 188.15C1788.1 188.15 1789.24 187.01 1789.24 185.6C1789.24 184.2 1788.1 183.05 1786.69 183.05Z" />
						<path id="&lt;Path&gt;" class="shp38" d="M1791.15 208.21C1790.15 209.21 1790.15 210.82 1791.15 211.82C1792.14 212.82 1793.76 212.82 1794.75 211.82C1795.75 210.82 1795.75 209.21 1794.75 208.21C1793.76 207.22 1792.14 207.22 1791.15 208.21Z" />
						<path id="&lt;Path&gt;" class="shp38" d="M1807.16 224.27C1806.17 225.27 1806.17 226.88 1807.16 227.88C1808.16 228.87 1809.77 228.87 1810.77 227.88C1811.76 226.88 1811.76 225.27 1810.77 224.27C1809.77 223.27 1808.16 223.27 1807.16 224.27Z" />
					</g>
				</g>
				<g id="&lt;Group&gt;">
					<path id="&lt;Path&gt;" class="shp38" d="M1830.47 185.6C1830.47 184.2 1831.62 183.05 1833.02 183.05C1834.43 183.05 1835.57 184.2 1835.57 185.6C1835.57 187.01 1834.43 188.15 1833.02 188.15C1831.62 188.15 1830.47 187.01 1830.47 185.6Z" />
					<g id="&lt;Group&gt;">
						<path id="&lt;Path&gt;" class="shp38" d="M1833.37 185.6L1832.68 185.6L1832.68 153.74L1833.37 153.74L1833.37 185.6Z" />
					</g>
					<g id="&lt;Group&gt;">
						<path id="&lt;Path&gt;" class="shp38" d="M1833.35 186.38L1832.06 184.74L1848.95 171.48L1850.24 173.12L1833.35 186.38Z" />
					</g>
				</g>
			</g>
			<g id="&lt;Group&gt;">
				<path id="&lt;Path&gt;" class="shp16" d="M632.62 893.89L632.62 720.14C632.62 689.57 655 664.79 682.61 664.79L795.66 664.79C823.27 664.79 845.65 689.57 845.65 720.14L845.65 893.89L632.62 893.89Z" />
				<path id="&lt;Path&gt;" class="shp13" d="M644.63 893.89L644.63 720.14C644.63 689.57 667.01 664.79 694.62 664.79L807.67 664.79C835.28 664.79 857.66 689.57 857.66 720.14L857.66 893.89L644.63 893.89Z" />
				<path id="&lt;Path&gt;" class="shp16" d="M890.95 921.32L649.24 921.32C640.06 921.32 632.62 913.88 632.62 904.7L632.62 893.89L890.95 893.89L890.95 921.32Z" />
				<path id="&lt;Path&gt;" class="shp7" d="M919.91 921.32L737.05 921.32C730.27 921.32 724.76 915.82 724.76 909.03L724.76 906.18C724.76 899.39 730.27 893.89 737.05 893.89L919.91 893.89C926.7 893.89 932.2 899.39 932.2 906.18L932.2 909.03C932.2 915.82 926.7 921.32 919.91 921.32Z" />
				<g id="&lt;Group&gt;">
					<path id="&lt;Path&gt;" class="shp39" d="M767.68 1119.71L752.09 1119.71L747.71 921.32L771.53 921.32L767.68 1119.71Z" />
					<path id="&lt;Path&gt;" class="shp39" d="M835.43 1119.71L683.81 1119.71L683.81 1106.02L761.09 1099.04L835.43 1106.02L835.43 1119.71Z" />
					<path id="&lt;Path&gt;" class="shp39" d="M669.08 1117.56C669.08 1110.67 674.66 1105.09 681.55 1105.09C688.44 1105.09 694.02 1110.67 694.02 1117.56C694.02 1124.45 688.44 1130.03 681.55 1130.03C674.66 1130.03 669.08 1124.45 669.08 1117.56Z" />
					<path id="&lt;Path&gt;" class="shp39" d="M820.7 1117.56C820.7 1110.67 826.29 1105.09 833.18 1105.09C840.06 1105.09 845.65 1110.67 845.65 1117.56C845.65 1124.45 840.06 1130.03 833.18 1130.03C826.29 1130.03 820.7 1124.45 820.7 1117.56Z" />
					<path id="&lt;Path&gt;" class="shp39" d="M830 934.34L689.24 934.34C682.05 934.34 676.23 928.51 676.23 921.32L843.01 921.32C843.01 928.51 837.19 934.34 830 934.34Z" />
				</g>
			</g>
			<g id="&lt;Group&gt;">
				<g id="&lt;Group&gt;">
					<g id="&lt;Group&gt;">
						<path id="&lt;Path&gt;" class="shp40" d="M562.33 1185.42L562.03 1185.42C560.22 1185.42 558.76 1183.01 558.81 1180.09L563.69 837.78L578.08 835.07L565.81 1180.12C565.7 1183.09 564.18 1185.42 562.33 1185.42Z" />
					</g>
					<g id="&lt;Group&gt;">
						<path id="&lt;Path&gt;" class="shp40" d="M1174.17 1185.42L1174.48 1185.42C1176.29 1185.42 1177.74 1183.01 1177.7 1180.09L1172.82 837.78L1158.43 835.07L1170.7 1180.12C1170.81 1183.09 1172.33 1185.42 1174.17 1185.42Z" />
					</g>
					<path id="&lt;Path&gt;" class="shp40" d="M1202.69 844.08L536.78 844.08C532.21 844.08 528.5 840.38 528.5 835.8L528.5 831.71C528.5 827.14 532.21 823.43 536.78 823.43L1202.69 823.43C1207.27 823.43 1210.97 827.14 1210.97 831.71L1210.97 835.8C1210.97 840.38 1207.27 844.08 1202.69 844.08Z" />
				</g>
				<g id="&lt;Group&gt;">
					<path id="&lt;Path&gt;" class="shp32" d="M1172.95 798.7L968.56 798.7L982.25 658.18L1186.63 658.18L1172.95 798.7Z" />
					<path id="&lt;Path&gt;" class="shp26" d="M1180.34 798.7L975.95 798.7L989.64 658.18L1194.03 658.18L1180.34 798.7Z" />
					<path id="&lt;Path&gt;" class="shp32" d="M1089.8 820.03L1053.53 820.03L1065.39 739.05L1101.66 739.05L1089.8 820.03Z" />
					<path id="&lt;Path&gt;" class="shp32" d="M1032.22 817.59L1106.68 817.59L1106.68 823.43L1032.22 823.43L1032.22 817.59Z" />
				</g>
			</g>
			<g id="&lt;Group&gt;">
				<g id="&lt;Group&gt;">
					<path id="&lt;Path&gt;" class="shp21" d="M554.99 476.45C553.07 457.82 541.88 450.51 521.43 454.54C527.96 455 533.16 456.59 537.02 459.33C522.47 454.24 509.26 458.97 497.38 473.53C479.56 495.37 496.76 533.83 491.94 543.51C487.12 553.18 436.95 556.1 458.15 604.55C469.32 630.09 567.48 635.06 566.97 658.51C581.25 625.01 579.88 602.93 562.85 592.27C571.16 597.49 576.44 603.95 578.7 611.66C577.58 595.97 571.67 586.63 560.96 583.65C546.75 579.7 531.47 558 531.75 553.53C531.94 550.55 539.69 524.86 554.99 476.45Z" />
					<g id="&lt;Group&gt;">
						<g id="&lt;Group&gt;">
							<path id="&lt;Path&gt;" class="shp27" d="M671.9 799.15L671.9 799.16L655.97 805.7C625.99 788.31 604.05 773.34 590.14 760.79C589.24 759.98 588.39 759.19 587.59 758.41C578.95 750.01 533.08 665.07 522.83 639.04C516 621.68 526.14 611.84 553.25 609.51C570.55 611.05 607.39 722.94 618.94 735.15C619.91 736.18 621.23 737.73 622.8 739.71C631.69 750.86 648.98 775.18 660.21 790.06C664.03 795.12 667.93 798.15 671.9 799.15Z" />
							<path id="&lt;Path&gt;" class="shp27" d="M713.19 820.34C711.47 822.77 690.47 818.82 680.48 817.24C678.15 816.87 676.42 816.63 675.68 816.63C673.31 816.63 669.43 818.8 666.22 819.91C666.22 819.91 666.22 819.91 666.22 819.91C664.04 820.66 662.18 820.93 661.31 819.69C660.96 819.18 660.57 818.46 660.18 817.6C659.46 816.04 658.7 814.04 658.04 812.14C658.04 812.13 658.03 812.12 658.03 812.11C657.25 809.88 656.57 807.75 655.97 805.7L667.25 798.89C668.51 798.92 670.06 799.01 671.9 799.16C678.1 799.64 688.7 800.94 691.87 804.33C696.45 809.22 714.46 818.55 713.19 820.34Z" />
						</g>
						<path id="&lt;Path&gt;" class="shp27" d="M682.36 819.94C681.44 820.46 677.29 819.67 667.55 819.93C667.08 819.94 666.64 819.94 666.22 819.91C666.22 819.91 666.22 819.91 666.22 819.91C663.23 819.76 661.36 818.8 660.18 817.6C658.1 815.47 658.17 812.6 658.04 812.14C658.04 812.13 658.03 812.12 658.03 812.11L672.22 812.11C675.43 814.81 677.81 816.38 679.37 816.81C679.77 816.92 680.13 817.07 680.48 817.24C682.16 818.07 683.11 819.49 682.36 819.94Z" />
					</g>
					<path id="&lt;Path&gt;" class="shp27" d="M536.32 750.1C535.62 750.96 534.72 751.69 533.64 752.13C531.47 753 527.74 753.28 522.45 752.97C522.45 752.97 522.45 752.97 522.45 752.96C522.54 752.78 523.99 749.93 528.16 747.88C532.47 745.76 538.12 743.54 538.28 745.17C538.38 746.26 537.73 748.4 536.32 750.1Z" />
					<path id="&lt;Path&gt;" class="shp12" d="M505.94 1163.81L493.07 1168.61C455.8 1116.92 434.88 1068.34 430.29 1022.87C429.06 1010.69 429.47 998.89 432.13 988C431.76 985.92 431.26 983.04 430.63 979.36C430.18 976.79 429.64 973.69 429.02 970.14C427.2 959.73 424.7 945.48 421.84 929.26C415.26 891.93 406.74 844.2 400.12 809.12L403.59 808.01L441.11 795.9L448.87 771.28L476.8 763.92C480.96 772.06 484.9 795.35 488.62 833.8C489.65 841.37 490.59 849.71 491.29 858.76C493.47 886.37 493.62 920.62 488.63 959.78C487.35 969.8 485.73 980.15 483.73 990.78C482.26 998.58 482.04 1009.2 482.66 1021.4C484.53 1058.57 492.29 1106.04 505.94 1163.81Z" />
					<path id="&lt;Path&gt;" class="shp34" d="M432.13 988C431.69 985.42 429.64 973.69 429.02 970.14C427.2 959.73 406.74 844.2 400.12 809.12C442.72 793.01 464.07 787.04 464.17 791.23C465.58 848.81 454.9 914.4 432.13 988Z" />
					<path id="&lt;Path&gt;" class="shp12" d="M471.68 765.38L463.2 767.36C447.51 771.52 418.72 765.7 376.81 749.89C361.61 763.25 355.01 785.94 357 817.96C358.47 841.4 361.13 941.01 363.92 970.49C364.93 981.17 365.81 988.77 366.17 991.81C366.18 991.82 366.18 991.83 366.18 991.84C366.29 992.77 365.96 993.64 365.49 994.45C361.39 1001.41 357.99 1008.66 355.21 1016.08C336.97 1064.67 338.38 1118.89 359.42 1178.73L367.61 1175.43C379.59 1108.83 390.44 1060.82 400.17 1031.4C402.65 1023.92 405.02 1018.04 407.2 1014.52C413.54 1004.28 419.43 987.55 424.78 967.64C434.88 930.01 443.01 881.06 448.42 843.27C448.92 843.3 456.67 817.33 471.68 765.38Z" />
					<path id="&lt;Path&gt;" class="shp32" d="M407.04 1185.42L342.22 1185.42C341.19 1178.84 341.8 1173.04 344.06 1168.05C347.3 1160.86 352.38 1157.59 351.16 1148.89C355.28 1153.13 362 1157.88 371.37 1156.62C372.51 1158.48 378.78 1168.44 382.61 1171.19C386.85 1174.24 405.74 1173.15 407.04 1185.42Z" />
					<path id="&lt;Path&gt;" class="shp32" d="M546.21 1185.42L481.4 1185.42C479.78 1178.53 480.39 1172.74 483.23 1168.05C486.99 1161.82 485.55 1158.28 482.76 1153.13C485.7 1154.33 489.5 1155.42 493.68 1155.18C496.91 1155 500.32 1153.53 503.32 1151.79C506.11 1154.97 518.05 1168.51 521.78 1171.19C526.02 1174.24 544.91 1173.15 546.21 1185.42Z" />
					<path id="&lt;Path&gt;" class="shp21" d="M540.1 468.29C540.19 466.54 507.03 492.06 505.57 494.49C492.1 517 501.93 540.99 511.84 539.29C516.07 538.56 518.47 541.78 519.04 548.96L583.64 505.27C571.49 473.39 556.98 461.07 540.1 468.29Z" />
					<path id="&lt;Path&gt;" class="shp41" d="M540.32 594.4C551.81 602.29 560.5 611.4 566.37 621.72C561.95 643.85 549.33 659.86 528.5 669.75C531 621.11 534.94 595.99 540.32 594.4Z" />
					<path id="&lt;Path&gt;" class="shp27" d="M523.07 637.99C482.56 636.73 492.28 580.36 494.72 580.87C499.87 578.72 514.13 564 521.06 543.51L522.73 544.46L550.64 560.65C548.04 566.78 545.72 572.8 543.67 578.71C541.28 585.65 539.41 592.39 540.32 594.4C542.53 595.52 533.88 638.33 523.07 637.99Z" />
					<path id="&lt;Path&gt;" class="shp42" d="M550.64 560.65C548.04 566.78 545.71 572.8 543.67 578.72C527.08 572.51 523.45 554.18 522.72 544.47L550.64 560.65Z" />
					<path id="&lt;Path&gt;" class="shp27" d="M553.36 570.98C526.78 562.36 516.3 549.82 521.92 533.35C530.35 508.64 530.88 490.33 556.69 497.54C582.51 504.74 584.21 515.85 583.4 524.78C582.59 533.71 563.95 573.7 553.36 570.98Z" />
					<path id="&lt;Path&gt;" class="shp21" d="M586.93 510.64C583.34 501.12 578.15 501.16 574.79 502.51C563.06 489.62 550.53 487.45 537.2 496C531.39 507.21 523.06 514.74 512.23 518.59C516.02 523.22 523.97 526.01 536.05 526.95C541.59 527.39 547.37 525.33 552.74 522.26C545.66 528.26 538.13 532.92 530.16 536.26C553.21 533.87 570.68 508.93 572.48 506.27C574.15 509.28 577.31 515.63 577.18 520.76C577 527.72 573.46 540.98 577.38 541.83C587.33 530.56 590.51 520.17 586.93 510.64Z" />
					<path id="&lt;Path&gt;" class="shp43" d="M537.92 691.08C525.45 702.86 509.74 711.08 502.55 717.92C485.19 734.46 389.57 704.96 406.47 676.83C406.51 676.77 406.55 676.71 406.58 676.66C408.47 673.53 410.36 670.48 412.26 667.51C412.32 667.41 412.37 667.33 412.41 667.28C426.23 645.67 440.22 628.41 453.03 614.85C453.04 614.85 453.04 614.84 453.05 614.84C460.38 607.07 467.33 600.5 473.64 595.04C474.63 594.18 475.6 593.36 476.55 592.55C488.36 582.63 495.85 577.74 499.04 577.9C514.9 589.47 526.5 596.96 533.83 600.36C541.32 603.82 540.32 594.59 540.32 594.4C540.47 595 547.2 618.81 548.4 645.08C549.26 663.77 547.25 682.27 537.92 691.08Z" />
					<path id="&lt;Path&gt;" class="shp29" d="M651.96 823.43C648.33 818.5 658.94 815.39 683.82 814.11C690.45 813.77 695.08 817.49 704.71 819C714.33 820.5 719.11 820.9 719.11 823.43L651.96 823.43Z" />
					<path id="&lt;Path&gt;" class="shp12" d="M537.92 691.08C525.45 702.86 509.74 711.08 502.55 717.92C490.97 728.95 482.48 745.03 477.08 766.16C409.21 798.91 370.16 804.43 359.91 782.72C373.21 739.85 389.57 704.96 406.47 676.83C406.51 676.77 406.55 676.71 406.58 676.66C409.02 672.73 410.96 669.6 412.41 667.28C448.69 682.32 479.12 684.42 503.68 673.57C540.52 657.31 526.22 646.72 531.69 645.36C535.26 644.47 542.87 643.98 548.4 645.08C549.26 663.77 547.25 682.27 537.92 691.08Z" />
					<path id="&lt;Path&gt;" class="shp12" d="M541.32 646.37L531.95 647.57C530.39 622.55 521.9 605.88 506.49 597.57C483.67 585.26 453.81 614.09 453.05 614.84C460.38 607.07 467.33 600.5 473.64 595.04C483.24 590.68 491.08 588.66 497.17 588.99C522.66 591.59 537.37 610.72 541.32 646.37Z" />
					<path id="&lt;Path&gt;" class="shp27" d="M522.81 765.98C482.02 762.89 452.29 757.53 434.17 751.44C422.9 747.66 416.12 743.59 414 739.6C410.31 732.68 429.09 689.97 470.33 611.48C498.59 592.66 504.15 646.19 502.19 655.34C500.21 664.49 457.69 716.09 454.94 718.8C454.25 719.48 458.13 721.96 464.34 725.28C476.74 731.95 496.11 741.18 522.45 752.97L522.81 765.98Z" />
					<path id="&lt;Path&gt;" class="shp43" d="M471.27 610.02C463.94 617.45 454.54 629.36 446.48 647.14C460.55 662.86 480.44 666.94 506.15 659.37C512.28 642.23 512.58 627.73 507.02 615.86C500.55 602.01 481.99 599.13 471.27 610.02Z" />
					<g id="&lt;Group&gt;">
						<path id="&lt;Path&gt;" class="shp24" d="M531.52 764.01L531.34 819.07C531.33 821.64 533.41 823.73 535.98 823.74L557.42 823.81C559.99 823.82 562.08 821.74 562.09 819.17L562.15 800.7C562.17 794.78 559.98 789.07 555.99 784.69L548.39 776.31C544.15 771.65 541.7 765.64 541.48 759.35L540.88 749.42C540.79 746.92 538.74 745.18 536.24 745.17C533.67 745.16 531.57 747.49 531.56 750.06L531.52 764.01Z" />
						<path id="&lt;Path&gt;" class="shp24" d="M533.26 735.06L554.85 735.13C556.64 735.13 558.1 736.6 558.09 738.4C558.09 739.87 557.09 741.16 555.66 741.54C552.3 742.42 546.4 744.42 544.25 747.86C543.64 748.82 542.6 749.43 541.46 749.42L530.44 749.39C528.73 749.38 527.35 748.05 527.23 746.35C527.17 745.53 527.03 744.57 526.76 743.48C525.69 739.2 528.85 735.04 533.26 735.06Z" />
						<g id="&lt;Group&gt;">
							<path id="&lt;Path&gt;" class="shp24" d="M551 757.9C550.87 757.9 550.74 757.87 550.61 757.82C542.35 754.27 539.91 745.81 539.81 745.46C539.66 744.92 539.98 744.36 540.51 744.21C541.05 744.06 541.61 744.38 541.76 744.91C541.79 745.05 544.08 752.82 551.41 755.96C551.92 756.18 552.16 756.78 551.94 757.29C551.77 757.67 551.4 757.9 551 757.9Z" />
						</g>
						<path id="&lt;Path&gt;" class="shp12" d="M562.12 810.58L531.37 810.48L531.42 794.32L562.17 794.42L562.12 810.58Z" />
					</g>
					<path id="&lt;Path&gt;" class="shp27" d="M548.59 765.28C545.99 768.92 537.4 769.15 522.81 765.98L522.45 752.97C522.45 752.97 522.45 752.97 522.45 752.96C522.74 752.9 529.39 751.33 536.32 750.1C543.61 748.8 551.2 747.87 552.02 749.42C553.64 752.5 552.48 759.83 548.59 765.28Z" />
					<path id="&lt;Path&gt;" class="shp44" d="M713.19 820.34C711.47 822.77 690.47 818.82 680.48 817.24C682.16 818.07 683.11 819.49 682.36 819.94C681.44 820.46 677.29 819.67 667.55 819.93C667.08 819.94 666.64 819.94 666.22 819.91C666.22 819.91 666.22 819.91 666.22 819.91C664.04 820.66 662.18 820.93 661.31 819.69C660.96 819.18 660.57 818.46 660.18 817.6C658.1 815.47 658.17 812.6 658.04 812.14C658.04 812.13 658.03 812.12 658.03 812.11C657.25 809.88 656.57 807.75 655.97 805.7C625.99 788.31 604.05 773.34 590.14 760.79C599.3 757.46 613.05 750.96 622.8 739.71C631.69 750.86 648.98 775.18 660.21 790.06C664.03 795.12 667.93 798.15 671.9 799.15L671.9 799.16C678.1 799.64 688.7 800.94 691.87 804.33C696.45 809.22 714.46 818.55 713.19 820.34Z" />
					<path id="&lt;Path&gt;" class="shp44" d="M548.59 765.28C545.99 768.92 537.4 769.15 522.81 765.98C482.02 762.89 452.29 757.53 434.17 751.44C454.29 745.5 461.51 732.95 464.34 725.28C476.74 731.95 496.11 741.18 522.45 752.97C522.45 752.97 522.45 752.97 522.45 752.96C522.54 752.78 523.99 749.93 528.16 747.88C532.47 745.76 538.12 743.54 538.28 745.17C538.38 746.26 537.73 748.4 536.32 750.1C543.61 748.8 551.2 747.87 552.02 749.42C553.64 752.5 552.48 759.83 548.59 765.28Z" />
				</g>
			</g>
			<g id="&lt;Group&gt;">
				<g id="&lt;Group&gt;">
					<path id="&lt;Path&gt;" class="shp41" d="M85.48 433.7L76.82 433.7L76.82 387.67L85.48 387.67L85.48 433.7Z" />
					<path id="&lt;Path&gt;" class="shp43" d="M120.01 433.7L85.48 433.7L85.48 387.67L120.01 387.67L120.01 433.7Z" />
					<g id="&lt;Group&gt;">
						<path id="&lt;Compound Path&gt;" fill-rule="evenodd" class="shp41" d="M90.63 398.22C89.13 398.22 87.9 397 87.9 395.49C87.9 393.99 89.13 392.77 90.63 392.77C92.13 392.77 93.36 393.99 93.36 395.49C93.36 397 92.13 398.22 90.63 398.22ZM90.63 393.54C89.56 393.54 88.68 394.42 88.68 395.49C88.68 396.57 89.56 397.44 90.63 397.44C91.71 397.44 92.58 396.57 92.58 395.49C92.58 394.42 91.71 393.54 90.63 393.54Z" />
					</g>
					<g id="&lt;Group&gt;">
						<path id="&lt;Compound Path&gt;" fill-rule="evenodd" class="shp41" d="M90.63 418.7C89.13 418.7 87.9 417.48 87.9 415.97C87.9 414.47 89.13 413.24 90.63 413.24C92.13 413.24 93.36 414.47 93.36 415.97C93.36 417.48 92.13 418.7 90.63 418.7ZM90.63 414.02C89.56 414.02 88.68 414.9 88.68 415.97C88.68 417.05 89.56 417.92 90.63 417.92C91.71 417.92 92.58 417.05 92.58 415.97C92.58 414.9 91.71 414.02 90.63 414.02Z" />
					</g>
					<path id="&lt;Path&gt;" class="shp45" d="M82.09 398.22L78.78 398.22L78.78 389.36L82.09 389.36L82.09 398.22Z" />
					<path id="&lt;Path&gt;" class="shp16" d="M107.08 433.7L98.42 433.7L98.42 387.67L107.08 387.67L107.08 433.7Z" />
					<path id="&lt;Path&gt;" class="shp13" d="M141.61 433.7L107.08 433.7L107.08 387.67L141.61 387.67L141.61 433.7Z" />
					<g id="&lt;Group&gt;">
						<path id="&lt;Compound Path&gt;" fill-rule="evenodd" class="shp16" d="M112.23 398.22C110.73 398.22 109.5 397 109.5 395.49C109.5 393.99 110.73 392.77 112.23 392.77C113.73 392.77 114.96 393.99 114.96 395.49C114.96 397 113.73 398.22 112.23 398.22ZM112.23 393.54C111.15 393.54 110.28 394.42 110.28 395.49C110.28 396.57 111.15 397.44 112.23 397.44C113.3 397.44 114.18 396.57 114.18 395.49C114.18 394.42 113.3 393.54 112.23 393.54Z" />
					</g>
					<g id="&lt;Group&gt;">
						<path id="&lt;Compound Path&gt;" fill-rule="evenodd" class="shp16" d="M112.23 418.7C110.73 418.7 109.5 417.48 109.5 415.97C109.5 414.47 110.73 413.24 112.23 413.24C113.73 413.24 114.96 414.47 114.96 415.97C114.96 417.48 113.73 418.7 112.23 418.7ZM112.23 414.02C111.15 414.02 110.28 414.9 110.28 415.97C110.28 417.05 111.15 417.92 112.23 417.92C113.3 417.92 114.18 417.05 114.18 415.97C114.18 414.9 113.3 414.02 112.23 414.02Z" />
					</g>
					<path id="&lt;Path&gt;" class="shp45" d="M103.69 417.68L100.38 417.68L100.38 408.81L103.69 408.81L103.69 417.68Z" />
					<path id="&lt;Path&gt;" class="shp41" d="M128.68 433.7L120.01 433.7L120.01 387.67L128.68 387.67L128.68 433.7Z" />
					<path id="&lt;Path&gt;" class="shp43" d="M163.21 433.7L128.68 433.7L128.68 387.67L163.21 387.67L163.21 433.7Z" />
					<g id="&lt;Group&gt;">
						<path id="&lt;Compound Path&gt;" fill-rule="evenodd" class="shp41" d="M133.83 398.22C132.32 398.22 131.1 397 131.1 395.49C131.1 393.99 132.32 392.77 133.83 392.77C135.33 392.77 136.55 393.99 136.55 395.49C136.55 397 135.33 398.22 133.83 398.22ZM133.83 393.54C132.75 393.54 131.88 394.42 131.88 395.49C131.88 396.57 132.75 397.44 133.83 397.44C134.9 397.44 135.78 396.57 135.78 395.49C135.78 394.42 134.9 393.54 133.83 393.54Z" />
					</g>
					<g id="&lt;Group&gt;">
						<path id="&lt;Compound Path&gt;" fill-rule="evenodd" class="shp41" d="M133.83 418.7C132.32 418.7 131.1 417.48 131.1 415.97C131.1 414.47 132.32 413.24 133.83 413.24C135.33 413.24 136.55 414.47 136.55 415.97C136.55 417.48 135.33 418.7 133.83 418.7ZM133.83 414.02C132.75 414.02 131.88 414.9 131.88 415.97C131.88 417.05 132.75 417.92 133.83 417.92C134.9 417.92 135.78 417.05 135.78 415.97C135.78 414.9 134.9 414.02 133.83 414.02Z" />
					</g>
					<path id="&lt;Path&gt;" class="shp45" d="M125.29 398.22L121.97 398.22L121.97 389.36L125.29 389.36L125.29 398.22Z" />
					<g id="&lt;Group&gt;">
						<path id="&lt;Path&gt;" class="shp46" d="M161.18 443.95L151.26 443.95L142.93 393.37L152.85 391.27L161.18 443.95Z" />
						<path id="&lt;Path&gt;" class="shp47" d="M200.7 443.95L161.18 443.95L152.85 391.27L192.38 391.27L200.7 443.95Z" />
						<g id="&lt;Group&gt;">
							<path id="&lt;Compound Path&gt;" fill-rule="evenodd" class="shp46" d="M160.65 403.35C158.93 403.35 157.31 401.94 157.04 400.22C156.77 398.5 157.95 397.1 159.67 397.1C161.39 397.1 163.01 398.5 163.28 400.22C163.55 401.94 162.37 403.35 160.65 403.35ZM159.81 397.99C158.58 397.99 157.74 398.99 157.93 400.22C158.12 401.45 159.28 402.45 160.51 402.45C161.74 402.45 162.58 401.45 162.39 400.22C162.2 398.99 161.04 397.99 159.81 397.99Z" />
						</g>
						<g id="&lt;Group&gt;">
							<path id="&lt;Compound Path&gt;" fill-rule="evenodd" class="shp46" d="M164.36 426.79C162.64 426.79 161.01 425.39 160.74 423.66C160.47 421.94 161.65 420.54 163.37 420.54C165.09 420.54 166.71 421.94 166.99 423.66C167.26 425.39 166.08 426.79 164.36 426.79ZM163.51 421.43C162.28 421.43 161.44 422.43 161.63 423.66C161.83 424.89 162.99 425.89 164.22 425.89C165.45 425.89 166.29 424.89 166.09 423.66C165.9 422.43 164.74 421.43 163.51 421.43Z" />
						</g>
					</g>
					<path id="&lt;Path&gt;" class="shp41" d="M225.55 491.56L121.49 491.56L121.49 420.94L225.55 420.94L225.55 491.56Z" />
					<path id="&lt;Path&gt;" class="shp43" d="M173.52 491.56L69.46 491.56L69.46 420.94L173.52 420.94L173.52 491.56Z" />
					<path id="&lt;Path&gt;" class="shp48" d="M225.49 469.8L209 469.8L210.45 465.16L209 461.84L225.49 461.84L225.49 469.8Z" />
					<path id="&lt;Path&gt;" class="shp49" d="M69.46 470.72L85.95 470.72L84.5 475.36L85.95 478.67L69.46 478.67L69.46 470.72Z" />
					<path id="&lt;Path&gt;" class="shp49" d="M166.51 440.66L62.45 440.66L69.46 420.94L173.52 420.94L166.51 440.66Z" />
					<path id="&lt;Path&gt;" class="shp48" d="M229.19 440.66L177.16 440.66L173.52 420.94L225.55 420.94L229.19 440.66Z" />
				</g>
				<path id="&lt;Path&gt;" class="shp27" d="M118.55 487.91C116.03 486.27 110.3 482.66 110.04 483.52C109.86 484.14 110.2 485.17 110.91 486.23C107.49 485.1 104.03 484.41 95.99 486.27C94.38 486.65 92.95 487.63 92.11 489.05C91.33 490.37 91.09 491.99 93.2 493.19C97.44 495.6 96.18 494.11 102.07 497.63C107.95 501.15 115.02 501.83 119.12 499.04L124.72 497.89L125.07 488.58C122.91 488.41 120.74 488.19 118.55 487.91Z" />
				<path id="&lt;Path&gt;" class="shp27" d="M264.41 392.14C253.76 400.85 243.28 402 232.99 395.59C231.69 389.37 231.42 384.12 232.18 379.86C232.33 379.07 232.46 378.31 232.58 377.58C233.42 372.78 234.01 369.01 234.36 366.29C234.36 366.29 234.36 366.29 234.37 366.29C235.19 366.12 261.79 360.61 261.61 361.45C258.89 374.36 259.83 384.59 264.41 392.14Z" />
				<path id="&lt;Path&gt;" class="shp28" d="M258.26 365.62C255.05 369.59 245.26 376.69 232.58 377.58C233.42 372.78 234.01 369.01 234.36 366.29C234.36 366.29 234.36 366.29 234.37 366.29C235.09 366.24 259.21 364.45 258.26 365.62Z" />
				<path id="&lt;Path&gt;" class="shp27" d="M229.32 364.58C247.02 372.4 258.22 370.76 262.93 359.67C269.98 343.02 278.16 333.33 261.51 325.13C244.85 316.93 238.85 321.88 235.14 326.86C231.44 331.85 222.6 361.1 229.32 364.58Z" />
				<path id="&lt;Path&gt;" class="shp46" d="M261.09 364.22C261.42 364.53 267.05 367.49 282.6 347.07C285.04 343.86 287.68 336.43 284.81 328.89C281.94 321.35 268.25 313.28 256.49 308.68C244.72 304.07 240.5 310.39 236.34 316.75C233.42 321.2 228.69 324.87 222.14 327.76C231.56 335.6 245.8 329.58 249.93 331.78C254.06 333.99 254.32 341.19 254.23 343.47C254.14 345.75 254.3 347.69 260.2 346.75C266.09 345.8 261.22 355.04 259.99 356.74C258.87 359.98 259.23 362.47 261.09 364.22Z" />
				<path id="&lt;Path&gt;" class="shp21" d="M301.72 807.58L318.83 807.58C322.41 807.58 326.4 803.98 327.4 797.41C328.39 790.83 335.77 787.24 337.36 781.86C338.43 778.27 336.23 773.95 330.78 768.9L329.42 767.15L327.99 765.32L314.44 768.5C314.22 770.66 314.04 773.1 313.9 775.84C313.75 778.81 313.67 782.24 313.84 785.25C314.24 792.43 311.83 800.15 305.46 801.55C301.2 802.48 299.96 804.49 301.72 807.58Z" />
				<path id="&lt;Path&gt;" class="shp21" d="M182.61 807.58L227.96 807.58C228.4 807.49 228.72 807.4 228.92 807.3C231.95 805.78 231 794.19 230.64 790.61C230.59 790.16 230.55 789.81 230.52 789.55C219.89 781.05 213.84 780.05 212.38 786.57C212.31 786.87 212.23 787.17 212.14 787.46L212.14 787.47C209.38 796.61 197 800.76 189.85 801.91C184.39 802.8 182.97 805.98 182.61 807.58Z" />
				<path id="&lt;Path&gt;" class="shp22" d="M191.75 546.04C193.36 566.19 195.12 588.37 197.02 612.58C200.89 661.93 205.54 722.53 206 734.02C206.53 747.31 207.86 764.58 209.99 785.85C215.04 790.9 222.61 792.36 232.71 790.23C241.72 759.88 247.5 728.65 250.07 696.53C250.13 695.74 250.19 694.95 250.25 694.15C252.65 661.46 255.7 610.7 259.42 541.86L191.75 546.04Z" />
				<path id="&lt;Path&gt;" class="shp23" d="M200.77 544.03C199.73 556.6 202.11 574.68 207.93 598.26C212.19 615.56 226.24 648.32 250.07 696.53C250.13 695.74 250.19 694.95 250.25 694.15C252.65 661.46 255.7 610.7 259.42 541.86L200.77 544.03Z" />
				<path id="&lt;Path&gt;" class="shp22" d="M200.77 544.03C231.23 620.72 256.03 676.21 275.17 710.5C294.31 744.78 306.86 766.71 312.84 776.28C323.81 771.89 329.79 768.21 330.78 765.21C323.47 699.02 313.4 657.86 300.59 641.73C289.72 628.05 276.96 587.01 276.37 572.66C275.97 563.09 274.67 548.83 272.48 529.9L200.77 544.03Z" />
				<path id="&lt;Path&gt;" class="shp29" d="M198.48 541.86C204.87 542.24 272.33 539.69 272.34 535.93C272.4 522.82 275.14 501.61 278.56 475.85C279.19 471.05 279.68 466.29 280.05 461.58C280.99 449.32 281.03 437.51 280.12 426.85C278.42 407.03 270 391.05 261.42 383.6C260.29 382.66 256.13 385.81 249.16 388.64C242.71 391.25 237.62 389.38 231.82 387.76L224.42 394.28C218.26 400.02 211.66 408.77 208.45 416.65C201.42 500.1 198.1 541.83 198.48 541.86Z" />
				<path id="&lt;Path&gt;" class="shp22" d="M208.45 416.65L226.87 420.94L252.23 489.61C255.87 499.47 265.27 506.02 275.78 506.02L273.56 539.91L191.75 546.04L208.45 416.65Z" />
				<path id="&lt;Path&gt;" class="shp29" d="M120.09 493.11C119.71 489.54 120.43 487.41 122.26 486.74C158.47 478.73 178.1 474.17 181.16 473.07C184.22 471.98 198.47 457.13 223.91 428.54C233.62 416.69 242.69 411.87 251.1 414.08C262.07 416.96 266.64 425.25 268.39 433.25C270.48 442.78 266.43 452.62 258.31 458.04C240.09 470.21 203.6 494.21 194.9 497.13C181.99 501.46 157.93 502.55 122.72 500.38C121.27 498.34 120.4 495.92 120.09 493.11Z" />
				<path id="&lt;Path&gt;" class="shp23" d="M245.96 401.05C248.82 398.39 254.84 393.41 264.01 386.11L261.42 383.6C259.58 383.21 245.37 393.91 240.63 398.12C236.83 401.51 229.66 408.73 219.11 419.78L226.87 420.94C236.23 410.8 242.6 404.18 245.96 401.05Z" />
			</g>
			<g id="&lt;Group&gt;">
				<path id="&lt;Path&gt;" class="shp43" d="M806.67 763.92L806.85 818.97C806.86 821.54 804.78 823.64 802.21 823.65L780.77 823.72C778.2 823.72 776.11 821.64 776.1 819.07L776.04 800.61C776.02 794.69 778.21 788.97 782.2 784.59L789.81 776.22C794.04 771.56 796.49 765.55 796.71 759.26L797.31 749.33C797.4 746.83 799.45 745.08 801.95 745.07C804.53 745.07 806.62 747.39 806.63 749.96L806.67 763.92Z" />
				<path id="&lt;Path&gt;" class="shp43" d="M804.93 734.96L783.35 735.03C781.55 735.04 780.09 736.5 780.1 738.3C780.1 739.78 781.1 741.06 782.53 741.44C785.89 742.33 791.8 744.32 793.94 747.76C794.55 748.73 795.59 749.33 796.73 749.33L807.76 749.29C809.46 749.29 810.84 747.95 810.96 746.25C811.02 745.44 811.16 744.47 811.43 743.39C812.5 739.11 809.34 734.95 804.93 734.96Z" />
				<g id="&lt;Group&gt;">
					<path id="&lt;Path&gt;" class="shp43" d="M787.19 757.81C787.32 757.81 787.45 757.78 787.58 757.72C795.84 754.18 798.28 745.72 798.38 745.36C798.53 744.82 798.22 744.27 797.68 744.12C797.14 743.97 796.58 744.28 796.43 744.82C796.4 744.95 794.11 752.72 786.78 755.87C786.27 756.09 786.03 756.68 786.25 757.19C786.42 757.58 786.79 757.81 787.19 757.81Z" />
				</g>
				<path id="&lt;Path&gt;" class="shp12" d="M776.07 810.49L806.82 810.39L806.77 794.22L776.02 794.32L776.07 810.49Z" />
			</g>
			<g id="&lt;Group&gt;">
				<g id="&lt;Group&gt;">
					<path id="&lt;Path&gt;" class="shp12" d="M269.4 1183.71L164.29 1183.71L156.73 1044.58L279.03 1044.58L269.4 1183.71Z" />
					<path id="&lt;Path&gt;" class="shp34" d="M282.56 1048.95L153.2 1048.95C153.2 1044.5 156.81 1040.9 161.25 1040.9L274.51 1040.9C278.96 1040.9 282.56 1044.5 282.56 1048.95Z" />
					<path id="&lt;Path&gt;" class="shp34" d="M269.4 1183.71L164.25 1183.71L164.25 1188.25L269.4 1188.25L269.4 1183.71Z" />
				</g>
				<g id="&lt;Group&gt;">
					<path id="&lt;Path&gt;" class="shp21" d="M216.83 1102.89C191.69 1102.89 171.24 1082.44 171.24 1057.31C171.24 1055.71 172.54 1054.41 174.14 1054.41C175.74 1054.41 177.03 1055.71 177.03 1057.31C177.03 1079.25 194.88 1097.1 216.83 1097.1C238.77 1097.1 256.62 1079.25 256.62 1057.31C256.62 1055.71 257.92 1054.41 259.52 1054.41C261.12 1054.41 262.41 1055.71 262.41 1057.31C262.41 1082.44 241.96 1102.89 216.83 1102.89Z" />
				</g>
				<path id="&lt;Path&gt;" class="shp44" d="M186.53 1040.9C182.13 1050.02 180.89 1054.95 182.83 1055.7C185.72 1056.83 190.23 1048.95 191.19 1048.95C192.16 1048.95 186.2 1062.78 191.19 1064.87C196.18 1066.97 207.6 1053.45 211.14 1040.9L186.53 1040.9Z" />
			</g>
			<g id="&lt;Group&gt;" style="opacity: 0.302">
				<path id="&lt;Path&gt;" class="shp28" d="M829.57 201.68C826.51 204.12 822.88 201.62 818.2 200.06C815.09 199.02 815.47 196.75 819.34 193.24C819.38 193.26 819.53 193.21 819.79 193.12C821.17 192.6 825.49 190.76 829.01 190.37C829.9 190.28 830.74 190.28 831.46 190.42C837.03 191.49 832.62 199.25 829.57 201.68Z" />
				<path id="&lt;Path&gt;" class="shp27" d="M829.57 194.41L827.81 196.43L821.29 196.85C820.69 195.41 820.19 194.17 819.79 193.12C821.17 192.6 825.49 190.76 829.01 190.37L829.57 194.41Z" />
				<g id="&lt;Group&gt;">
					<path id="&lt;Path&gt;" class="shp29" d="M820.84 260.46L817.76 259.99L840.3 111.37L843.38 111.83L820.84 260.46Z" />
					<path id="&lt;Path&gt;" class="shp22" d="M870.34 109.97L816.58 117.82L816.62 96.6L870.38 88.76L870.34 109.97Z" />
				</g>
				<path id="&lt;Path&gt;" class="shp28" d="M831.72 192.11C829.27 193.78 828.02 195.31 827.95 196.69C827.85 198.76 828.63 202.11 830.06 201.52C831.49 200.94 833.57 197.01 833.18 195.1C832.92 193.82 832.43 192.82 831.72 192.11Z" />
				<path id="&lt;Path&gt;" class="shp29" d="M705.53 123.91C694.73 129.02 688.39 132.84 686.48 135.36C684.58 137.88 688.18 140.25 697.28 142.46L708.25 133.82L705.53 123.91Z" />
				<path id="&lt;Path&gt;" class="shp27" d="M819.2 196.87C820.26 198.3 821.47 199.02 822.81 199.02C824.82 199.02 831.18 199.29 831.7 198.12C832.22 196.96 828.2 193.9 826.44 193.97C824.69 194.03 820.63 194.28 819.2 196.87Z" />
				<path id="&lt;Path&gt;" class="shp50" d="M821.53 197.15C821.87 194.49 821.36 192.9 820 192.37C793.13 185.89 778.57 182.22 776.3 181.36C774.04 180.51 763.62 169.25 745.07 147.58C737.99 138.62 731.31 134.9 725 136.43C716.79 138.42 713.27 144.53 711.85 150.47C710.16 157.55 713.04 164.93 719.02 169.08C732.43 178.41 759.28 196.8 765.73 199.1C775.29 202.51 793.2 203.65 819.47 202.53C820.58 201.03 821.26 199.24 821.53 197.15Z" />
				<path id="&lt;Path&gt;" class="shp21" d="M764.65 441.7L730.7 441.7C730.38 441.64 730.13 441.57 729.98 441.49C727.72 440.38 728.38 431.73 728.64 429.06C728.67 428.73 728.7 428.47 728.72 428.28C736.61 421.9 741.11 421.13 742.23 425.98C742.28 426.2 742.35 426.43 742.41 426.64L742.41 426.65C744.51 433.45 753.75 436.49 759.08 437.32C763.16 437.96 764.37 440.51 764.65 441.7Z" />
				<path id="&lt;Path&gt;" class="shp27" d="M702.61 130.35C710.43 136.99 718.21 137.99 725.97 133.36C727.03 128.74 727.3 124.83 726.79 121.65C726.7 121.06 726.61 120.49 726.53 119.94C725.97 116.35 725.58 113.54 725.36 111.51C725.36 111.51 725.36 111.51 725.35 111.51C724.74 111.37 705 106.89 705.12 107.52C706.97 117.18 706.13 124.79 702.61 130.35Z" />
				<path id="&lt;Path&gt;" class="shp28" d="M707.56 110.67C709.9 113.68 717.09 119.11 726.53 119.94C725.97 116.35 725.58 113.54 725.36 111.51C725.36 111.51 725.36 111.51 725.35 111.51C724.82 111.46 706.87 109.79 707.56 110.67Z" />
				<path id="&lt;Path&gt;" class="shp27" d="M729.14 110.3C715.84 115.88 707.52 114.51 704.17 106.17C699.14 93.67 693.18 86.33 705.71 80.46C718.23 74.58 722.64 78.35 725.33 82.11C728.02 85.88 734.2 107.8 729.14 110.3Z" />
				<path id="&lt;Path&gt;" class="shp29" d="M705.47 109.59C705.22 109.82 700.98 111.94 689.68 96.51C687.91 94.08 686.04 88.51 688.29 82.93C690.53 77.35 696.6 73.25 705.43 69.99C714.26 66.72 721.56 69.76 724.58 74.56C725.1 75.4 725.74 76.19 726.45 76.93C729.77 80.42 726.86 86.16 722.06 85.73C718.59 85.43 715.65 84.85 714.24 85.57C711.13 87.16 710.84 92.53 710.87 94.23C710.9 95.93 710.76 97.37 706.38 96.58C702 95.79 705.5 102.74 706.39 104.03C707.19 106.46 706.88 108.31 705.47 109.59Z" />
				<path id="&lt;Path&gt;" class="shp21" d="M675.73 441.58L662.98 441.65C660.31 441.67 657.32 439.01 656.55 434.11C655.78 429.21 650.27 426.57 649.06 422.56C648.25 419.89 649.87 416.66 653.91 412.88L654.92 411.56L655.98 410.19L666.09 412.51C666.26 414.12 666.41 415.94 666.52 417.98C666.64 420.19 666.72 422.75 666.6 424.99C666.34 430.34 668.16 436.09 672.92 437.11C676.09 437.78 677.03 439.28 675.73 441.58Z" />
				<path id="&lt;Path&gt;" class="shp22" d="M754.61 246.05C754.83 261.18 754.29 277.77 752.97 295.83C750.29 332.62 747.07 377.81 746.77 386.37C746.43 396.28 745.51 409.16 744.01 425.01C740.27 428.8 734.63 429.92 727.09 428.37C720.26 405.79 715.82 382.53 713.77 358.61C713.72 358.02 713.67 357.43 713.63 356.84C711.71 332.48 709.23 294.66 706.17 243.37L754.61 246.05Z" />
				<path id="&lt;Path&gt;" class="shp23" d="M747.54 250.71C749.94 256.1 749.02 267.6 744.78 285.2C741.67 298.11 731.34 322.58 713.77 358.61C713.72 358.02 713.67 357.43 713.63 356.84C711.71 332.48 709.23 294.66 706.17 243.37L747.54 250.71Z" />
				<path id="&lt;Path&gt;" class="shp22" d="M749.89 244.75C727.5 302.03 709.25 343.49 695.12 369.12C681 394.75 671.73 411.15 667.31 418.3C659.12 415.08 654.65 412.35 653.9 410.13C659.08 360.77 666.42 330.05 675.9 317.97C683.94 307.73 690.33 276.48 690.72 265.78C690.98 258.65 691.65 252.17 692.74 246.34L749.89 244.75Z" />
				<path id="&lt;Path&gt;" class="shp29" d="M749.65 242.84C744.88 243.03 694.65 240.19 694.69 237.39C694.83 227.62 693.08 211.78 690.9 192.53C690.5 188.95 690.19 185.39 689.99 181.88C689.46 172.73 689.59 163.93 690.42 155.99C691.96 141.25 698.45 129.46 704.96 124.03C705.81 123.34 708.86 125.75 714.02 127.95C718.79 129.99 722.61 128.67 726.95 127.54L732.38 132.5C736.89 136.86 741.68 143.48 743.97 149.4C748.04 211.68 749.94 242.82 749.65 242.84Z" />
				<path id="&lt;Path&gt;" class="shp22" d="M739.64 149.92L727.47 151.37C722.73 151.94 718.91 155.54 718.06 160.25L710.33 203.15C707.48 210.45 700.38 215.2 692.55 215.05L692.74 246.34L754.61 246.05L744.45 153.73C744.18 151.34 742.02 149.63 739.64 149.92Z" />
				<path id="&lt;Path&gt;" class="shp23" d="M715.4 135.38C711.33 131 706.28 128.06 700.25 126.53L703.92 124.69C706.83 124.68 715.06 129.63 718.62 133.71C721.12 136.56 724.55 142.4 728.91 151.2L724.14 152.33C720.64 143.54 717.73 137.88 715.4 135.38Z" />
				<path id="&lt;Path&gt;" class="shp16" d="M604.66 450.48L600.12 450.48L600.12 0.12L604.66 0.12L604.66 450.48Z" />
				<path id="&lt;Path&gt;" class="shp16" d="M790.63 450.48L786.08 450.48L786.08 0.12L790.63 0.12L790.63 450.48Z" />
				<path id="&lt;Path&gt;" class="shp16" d="M803.89 462.28L585.24 462.28L585.24 441.7L803.89 441.7L803.89 462.28Z" />
				<path id="&lt;Path&gt;" class="shp16" d="M790.63 234.84L600.21 234.84L600.21 228.86L790.63 228.86L790.63 234.84Z" />
				<path id="&lt;Path&gt;" class="shp16" d="M790.63 304.95L600.21 304.95L600.21 298.97L790.63 298.97L790.63 304.95Z" />
				<path id="&lt;Path&gt;" class="shp16" d="M790.63 374.11L600.21 374.11L600.21 368.13L790.63 368.13L790.63 374.11Z" />
				<path id="&lt;Path&gt;" class="shp27" d="M666.95 241.92C666.55 244.15 666.55 246.03 666.94 247.54C667.52 249.81 670.51 256.16 671.5 255.82C675.12 254.57 672.54 247.4 673.75 246.64C674.55 246.14 673.83 249.52 674.52 250.23C675.36 251.08 676.2 247.86 676.33 246.14C676.41 244.99 675.67 243.39 674.09 241.34L666.95 241.92Z" />
				<path id="&lt;Path&gt;" class="shp29" d="M670.76 243.42C673.06 243.26 674.36 242.64 674.66 241.56C677.76 214.2 679.55 199.34 680.04 196.96C680.53 194.59 690 182.53 708.45 160.77C716.18 152.37 718.79 145.18 716.28 139.19C713.02 131.4 706.42 128.89 700.33 128.43C693.08 127.89 686.25 131.9 683.09 138.46C676.01 153.17 662.1 182.6 660.86 189.33C659 199.31 660.95 217.01 666.68 242.42C667.3 243.24 668.66 243.57 670.76 243.42Z" />
			</g>
			<g id="&lt;Group&gt;">
				<path id="&lt;Path&gt;" class="shp41" d="M2005.87 980.57L1890.63 980.57L1890.63 885.55L2005.87 885.55L2005.87 980.57Z" />
				<path id="&lt;Path&gt;" class="shp43" d="M1948.25 980.57L1833.01 980.57L1833.01 885.55L1948.25 885.55L1948.25 980.57Z" />
				<path id="&lt;Path&gt;" class="shp51" d="M2005.8 956.48L1987.54 956.48L1989.15 951.34L1987.54 947.67L2005.8 947.67L2005.8 956.48Z" />
				<path id="&lt;Path&gt;" class="shp20" d="M1948.25 914.96L1929.99 914.96L1931.59 909.82L1929.99 906.15L1948.25 906.15L1948.25 914.96Z" />
				<path id="&lt;Path&gt;" class="shp51" d="M1948.25 906.15L1966.51 906.15L1964.9 911.29L1966.51 914.96L1948.25 914.96L1948.25 906.15Z" />
				<path id="&lt;Path&gt;" class="shp20" d="M1833.01 957.5L1851.27 957.5L1849.66 962.63L1851.27 966.31L1833.01 966.31L1833.01 957.5Z" />
				<path id="&lt;Path&gt;" class="shp20" d="M1894.62 970.4L1939.12 970.4L1939.12 953.08L1894.62 953.08L1894.62 970.4Z" />
			</g>
			<g id="&lt;Group&gt;">
				<path id="&lt;Path&gt;" class="shp41" d="M989.13 1074.93L879 1074.93L879 984.13L989.13 984.13L989.13 1074.93Z" />
				<path id="&lt;Path&gt;" class="shp43" d="M934.06 1074.93L823.94 1074.93L823.94 984.13L934.06 984.13L934.06 1074.93Z" />
				<path id="&lt;Path&gt;" class="shp51" d="M989.06 1051.9L971.61 1051.9L973.15 1046.99L971.61 1043.48L989.06 1043.48L989.06 1051.9Z" />
				<path id="&lt;Path&gt;" class="shp20" d="M934.06 1012.23L916.61 1012.23L918.15 1007.32L916.61 1003.81L934.06 1003.81L934.06 1012.23Z" />
				<path id="&lt;Path&gt;" class="shp51" d="M934.06 1003.81L951.51 1003.81L949.98 1008.72L951.51 1012.23L934.06 1012.23L934.06 1003.81Z" />
				<path id="&lt;Path&gt;" class="shp20" d="M823.94 1052.88L841.39 1052.88L839.85 1057.79L841.39 1061.3L823.94 1061.3L823.94 1052.88Z" />
				<path id="&lt;Path&gt;" class="shp20" d="M882.81 1065.21L925.34 1065.21L925.34 1048.66L882.81 1048.66L882.81 1065.21Z" />
			</g>
			<g id="&lt;Group&gt;">
				<path id="&lt;Path&gt;" class="shp41" d="M1954.63 799.47L1863.43 799.47L1863.43 724.27L1954.63 724.27L1954.63 799.47Z" />
				<path id="&lt;Path&gt;" class="shp43" d="M1909.03 799.47L1817.83 799.47L1817.83 724.27L1909.03 724.27L1909.03 799.47Z" />
				<path id="&lt;Path&gt;" class="shp51" d="M1954.58 780.4L1940.13 780.4L1941.4 776.33L1940.13 773.43L1954.58 773.43L1954.58 780.4Z" />
				<path id="&lt;Path&gt;" class="shp20" d="M1909.03 747.54L1894.58 747.54L1895.85 743.47L1894.58 740.57L1909.03 740.57L1909.03 747.54Z" />
				<path id="&lt;Path&gt;" class="shp51" d="M1909.03 740.57L1923.48 740.57L1922.21 744.63L1923.48 747.54L1909.03 747.54L1909.03 740.57Z" />
				<path id="&lt;Path&gt;" class="shp20" d="M1817.83 781.2L1832.28 781.2L1831.01 785.27L1832.28 788.18L1817.83 788.18L1817.83 781.2Z" />
				<path id="&lt;Path&gt;" class="shp20" d="M1866.59 791.41L1901.81 791.41L1901.81 777.71L1866.59 777.71L1866.59 791.41Z" />
			</g>
		</g>
	</g>
</svg>